<svg xmlns="http://www.w3.org/2000/svg" xmlns:xlink="http://www.w3.org/1999/xlink" width="250" zoomAndPan="magnify" viewBox="0 0 187.5 52.499999" height="70" preserveAspectRatio="xMidYMid meet" version="1.0"><defs><g/><clipPath id="478726a20f"><path d="M 151 28 L 170 28 L 170 39.324219 L 151 39.324219 Z M 151 28 " clip-rule="nonzero"/></clipPath><clipPath id="fa56014339"><path d="M 148.613281 8.121094 L 166 8.121094 L 166 15 L 148.613281 15 Z M 148.613281 8.121094 " clip-rule="nonzero"/></clipPath></defs><g fill="#ffc214" fill-opacity="1"><g transform="translate(20.106794, 36.031838)"><g><path d="M 9.546875 -23.015625 C 9.554688 -23.015625 9.660156 -22.976562 9.859375 -22.90625 C 9.921875 -22.882812 10.03125 -22.875 10.1875 -22.875 C 10.59375 -22.863281 11.226562 -22.757812 12.09375 -22.5625 C 12.957031 -22.375 13.566406 -22.203125 13.921875 -22.046875 C 14.242188 -21.898438 14.445312 -21.78125 14.53125 -21.6875 C 14.613281 -21.59375 14.8125 -21.25 15.125 -20.65625 L 16.015625 -19.34375 L 16.28125 -17.796875 L 16.640625 -16.265625 L 16.515625 -16.234375 L 16.671875 -14.65625 L 16.421875 -14.453125 L 16.484375 -14.203125 L 16.390625 -14.03125 C 16.265625 -13.675781 16.070312 -13.390625 15.8125 -13.171875 C 15.5625 -12.953125 15.289062 -12.84375 15 -12.84375 C 14.820312 -12.84375 14.664062 -12.945312 14.53125 -13.15625 L 13.125 -12.4375 L 13 -12.5 C 12.976562 -12.5 12.914062 -12.4375 12.8125 -12.3125 L 12.640625 -12.0625 L 12.84375 -11.828125 L 12.796875 -11.53125 C 13.503906 -10.707031 13.867188 -10.265625 13.890625 -10.203125 C 14.234375 -9.566406 14.4375 -9.066406 14.5 -8.703125 C 14.675781 -7.753906 14.828125 -7.195312 14.953125 -7.03125 L 15.390625 -5.515625 L 15.734375 -5.265625 L 16.171875 -4.234375 L 17.484375 -3.375 L 17.609375 -3.265625 L 19.296875 -3.265625 C 19.398438 -3.265625 19.457031 -3.269531 19.46875 -3.28125 C 19.488281 -3.300781 19.5 -3.375 19.5 -3.5 C 19.5 -3.539062 19.519531 -3.5625 19.5625 -3.5625 C 19.601562 -3.570312 19.632812 -3.554688 19.65625 -3.515625 L 19.765625 -3.375 C 19.859375 -3.269531 19.90625 -3.207031 19.90625 -3.1875 C 19.90625 -2.988281 19.753906 -2.695312 19.453125 -2.3125 C 19.160156 -1.925781 18.851562 -1.613281 18.53125 -1.375 C 17.914062 -0.9375 17.550781 -0.664062 17.4375 -0.5625 C 17.332031 -0.457031 17.265625 -0.328125 17.234375 -0.171875 C 17.203125 -0.046875 17.179688 0.015625 17.171875 0.015625 L 16.9375 -0.03125 C 16.90625 -0.03125 16.851562 0 16.78125 0.0625 C 16.71875 0.101562 16.675781 0.125 16.65625 0.125 C 16.65625 0.125 16.628906 0.0859375 16.578125 0.015625 C 15.492188 -0.222656 14.910156 -0.367188 14.828125 -0.421875 C 14.023438 -0.921875 13.601562 -1.171875 13.5625 -1.171875 L 13.359375 -1.15625 C 13.335938 -1.15625 13.023438 -1.585938 12.421875 -2.453125 C 12.171875 -2.816406 12 -3.109375 11.90625 -3.328125 C 11.820312 -3.546875 11.628906 -4.148438 11.328125 -5.140625 C 11.023438 -6.398438 10.828125 -7.15625 10.734375 -7.40625 C 10.640625 -7.664062 10.445312 -7.984375 10.15625 -8.359375 C 9.789062 -8.828125 9.472656 -9.179688 9.203125 -9.421875 C 8.929688 -9.660156 8.617188 -9.859375 8.265625 -10.015625 C 7.941406 -10.160156 7.78125 -10.320312 7.78125 -10.5 C 7.78125 -10.539062 7.867188 -10.671875 8.046875 -10.890625 C 8.148438 -11.203125 8.257812 -11.398438 8.375 -11.484375 C 8.5 -11.566406 8.785156 -11.632812 9.234375 -11.6875 C 10.265625 -11.820312 10.804688 -12.128906 10.859375 -12.609375 C 10.878906 -12.773438 10.90625 -12.867188 10.9375 -12.890625 C 10.96875 -12.921875 11.113281 -12.945312 11.375 -12.96875 C 11.488281 -12.757812 11.617188 -12.660156 11.765625 -12.671875 C 12.035156 -12.679688 12.203125 -12.738281 12.265625 -12.84375 C 12.347656 -13.007812 12.398438 -13.082031 12.421875 -13.0625 L 12.609375 -12.9375 L 12.5 -14.84375 C 12.5 -14.945312 12.507812 -15.210938 12.53125 -15.640625 C 12.550781 -15.941406 12.5625 -16.238281 12.5625 -16.53125 C 12.5625 -16.84375 12.519531 -17.097656 12.4375 -17.296875 C 12.363281 -17.492188 12.1875 -17.753906 11.90625 -18.078125 C 11.382812 -18.679688 10.953125 -18.984375 10.609375 -18.984375 L 9.40625 -18.96875 L 7.8125 -19.03125 C 7.175781 -18.832031 6.847656 -18.734375 6.828125 -18.734375 C 6.796875 -18.734375 6.710938 -18.765625 6.578125 -18.828125 C 6.492188 -18.640625 6.40625 -18.515625 6.3125 -18.453125 C 6.1875 -18.359375 6.125 -18.257812 6.125 -18.15625 C 6.125 -18.144531 6.160156 -18.046875 6.234375 -17.859375 L 5.984375 -16.296875 L 6.03125 -14.71875 L 5.953125 -13.125 L 6.234375 -11.5625 C 6.085938 -10.757812 6.003906 -10.125 5.984375 -9.65625 C 5.960938 -9.1875 5.953125 -8.0625 5.953125 -6.28125 C 5.953125 -6.082031 5.96875 -5.867188 6 -5.640625 C 6.0625 -5.148438 6.09375 -4.882812 6.09375 -4.84375 L 6 -3.78125 L 6.4375 -2.234375 L 6.25 -0.78125 L 6.390625 -0.484375 L 6.09375 -0.34375 C 5.988281 -0.175781 5.925781 -0.09375 5.90625 -0.09375 C 5.863281 -0.09375 5.785156 -0.125 5.671875 -0.1875 C 5.585938 -0.226562 5.507812 -0.25 5.4375 -0.25 C 5.21875 -0.25 4.816406 -0.1875 4.234375 -0.0625 C 3.984375 -0.0078125 3.738281 0.015625 3.5 0.015625 C 3.28125 0.015625 3.078125 -0.00390625 2.890625 -0.046875 C 2.742188 -0.078125 2.648438 -0.09375 2.609375 -0.09375 C 2.453125 -0.101562 2.351562 -0.132812 2.3125 -0.1875 C 2.28125 -0.25 2.222656 -0.441406 2.140625 -0.765625 C 2.140625 -0.773438 2.207031 -0.816406 2.34375 -0.890625 C 2.507812 -0.972656 2.59375 -1.160156 2.59375 -1.453125 C 2.59375 -1.796875 2.523438 -2.132812 2.390625 -2.46875 C 2.160156 -3.082031 2.046875 -3.40625 2.046875 -3.4375 L 2.421875 -5.609375 L 2.390625 -7.203125 L 2.421875 -8.78125 L 2.34375 -10.28125 C 2.226562 -12.363281 2.171875 -13.476562 2.171875 -13.625 C 2.171875 -13.988281 2.210938 -14.421875 2.296875 -14.921875 C 2.367188 -15.398438 2.40625 -15.660156 2.40625 -15.703125 L 2.15625 -18.015625 L 2.125 -19.59375 L 1.8125 -21.140625 L 1.890625 -21.578125 L 1.875 -21.953125 C 1.875 -22.066406 1.890625 -22.132812 1.921875 -22.15625 C 1.960938 -22.175781 2.085938 -22.203125 2.296875 -22.234375 L 2.5 -22.46875 L 3.859375 -22.453125 L 5.3125 -22.984375 C 5.75 -22.898438 5.96875 -22.851562 5.96875 -22.84375 C 5.96875 -22.84375 6 -22.726562 6.0625 -22.5 L 6.21875 -22.21875 L 6 -20.859375 L 6.3125 -20.546875 C 6.5625 -20.285156 6.742188 -20.15625 6.859375 -20.15625 C 6.910156 -20.15625 7.0625 -20.3125 7.3125 -20.625 L 8.265625 -21.515625 L 9.09375 -22.53125 L 9.375 -22.75 C 9.46875 -22.925781 9.523438 -23.015625 9.546875 -23.015625 Z M 9.546875 -23.015625 "/></g></g></g><g fill="#ffc214" fill-opacity="1"><g transform="translate(39.685251, 36.031838)"><g><path d="M 2.421875 -5.4375 C 2.429688 -5.4375 2.445312 -5.429688 2.46875 -5.421875 C 2.601562 -5.359375 2.675781 -5.332031 2.6875 -5.34375 C 2.695312 -5.351562 2.675781 -5.425781 2.625 -5.5625 C 2.625 -5.570312 2.625 -5.582031 2.625 -5.59375 C 2.625 -5.601562 2.671875 -5.695312 2.765625 -5.875 L 2.4375 -7.578125 L 2.4375 -9.296875 L 2.140625 -11.015625 L 2.203125 -12.8125 C 2.203125 -12.957031 2.191406 -13.066406 2.171875 -13.140625 C 2.148438 -13.242188 2.140625 -13.300781 2.140625 -13.3125 C 2.148438 -13.4375 2.289062 -13.585938 2.5625 -13.765625 C 3.007812 -14.097656 3.347656 -14.484375 3.578125 -14.921875 C 3.972656 -15.671875 4.21875 -16.09375 4.3125 -16.1875 C 4.507812 -16.375 4.617188 -16.492188 4.640625 -16.546875 C 4.679688 -16.628906 4.703125 -16.671875 4.703125 -16.671875 C 4.710938 -16.679688 4.78125 -16.695312 4.90625 -16.71875 L 4.90625 -16.953125 C 5.0625 -16.847656 5.148438 -16.796875 5.171875 -16.796875 C 5.191406 -16.796875 5.332031 -16.867188 5.59375 -17.015625 C 5.675781 -17.078125 5.78125 -17.109375 5.90625 -17.109375 C 6.207031 -17.109375 6.828125 -17.023438 7.765625 -16.859375 C 8.109375 -16.804688 8.285156 -16.773438 8.296875 -16.765625 L 9.6875 -16 L 9.953125 -15.90625 L 11.28125 -14.234375 C 11.445312 -13.992188 11.53125 -13.722656 11.53125 -13.421875 C 11.53125 -13.398438 11.523438 -13.203125 11.515625 -12.828125 C 11.515625 -12.640625 11.515625 -12.347656 11.515625 -11.953125 L 11.4375 -10.140625 L 11.609375 -8.171875 C 11.609375 -8.054688 11.578125 -7.695312 11.515625 -7.09375 C 11.472656 -6.757812 11.453125 -6.453125 11.453125 -6.171875 C 11.453125 -5.429688 11.554688 -4.679688 11.765625 -3.921875 C 11.984375 -3.160156 12.191406 -2.796875 12.390625 -2.828125 L 13.03125 -2.890625 C 13.039062 -2.878906 13.054688 -2.816406 13.078125 -2.703125 C 13.160156 -2.847656 13.222656 -2.921875 13.265625 -2.921875 C 13.484375 -2.921875 13.59375 -2.800781 13.59375 -2.5625 C 13.59375 -2.550781 13.523438 -2.507812 13.390625 -2.4375 L 13.203125 -2.109375 L 12.015625 -1.21875 L 11.234375 -0.375 L 10.90625 -0.09375 C 10.75 0.132812 10.644531 0.242188 10.59375 0.234375 L 10.34375 0.1875 C 10.132812 0.1875 10.003906 0.164062 9.953125 0.125 C 9.585938 -0.0625 9.242188 -0.34375 8.921875 -0.71875 C 8.609375 -1.09375 8.421875 -1.441406 8.359375 -1.765625 C 8.335938 -1.890625 8.316406 -1.957031 8.296875 -1.96875 C 8.273438 -1.976562 8.179688 -1.988281 8.015625 -2 L 7.75 -2.109375 C 7.71875 -2.109375 7.648438 -2.050781 7.546875 -1.9375 C 7.171875 -1.457031 6.84375 -1.140625 6.5625 -0.984375 C 5.914062 -0.609375 5.59375 -0.398438 5.59375 -0.359375 L 5.609375 -0.046875 L 5.328125 0 C 5.160156 -0.0390625 5.078125 -0.0625 5.078125 -0.0625 C 5.078125 -0.0625 5.007812 0 4.875 0.125 C 4.863281 0.125 4.828125 0.132812 4.765625 0.15625 C 4.691406 0.15625 4.597656 0.0976562 4.484375 -0.015625 C 4.015625 -0.503906 3.28125 -1.070312 2.28125 -1.71875 C 1.738281 -2.0625 1.363281 -2.335938 1.15625 -2.546875 C 1.007812 -2.691406 0.90625 -2.789062 0.84375 -2.84375 C 0.675781 -2.945312 0.59375 -3.039062 0.59375 -3.125 C 0.59375 -3.238281 0.742188 -3.441406 1.046875 -3.734375 L 2.375 -5.078125 C 2.300781 -5.140625 2.265625 -5.195312 2.265625 -5.25 C 2.265625 -5.375 2.316406 -5.4375 2.421875 -5.4375 Z M 7.109375 -8.421875 C 6.984375 -8.421875 6.863281 -8.394531 6.75 -8.34375 C 6.644531 -8.289062 6.59375 -8.234375 6.59375 -8.171875 L 6.703125 -8 L 5.46875 -6.84375 L 4.359375 -5.59375 L 4.03125 -5.28125 L 4.21875 -4.984375 L 4.171875 -4.703125 C 4.171875 -4.660156 4.300781 -4.59375 4.5625 -4.5 C 4.757812 -4.4375 5.082031 -4.101562 5.53125 -3.5 C 5.738281 -3.195312 5.90625 -3.019531 6.03125 -2.96875 C 6.164062 -2.925781 6.582031 -2.890625 7.28125 -2.859375 L 7.765625 -2.640625 C 7.835938 -2.640625 7.910156 -2.695312 7.984375 -2.8125 C 8.054688 -2.9375 8.09375 -3.054688 8.09375 -3.171875 C 8.09375 -3.203125 8.066406 -3.273438 8.015625 -3.390625 C 7.960938 -3.535156 7.9375 -3.71875 7.9375 -3.9375 C 7.9375 -4.1875 7.953125 -4.46875 7.984375 -4.78125 C 8.054688 -5.632812 8.09375 -6.210938 8.09375 -6.515625 C 8.09375 -7.785156 7.765625 -8.421875 7.109375 -8.421875 Z M 5.21875 -13.515625 C 4.425781 -13.585938 4.023438 -13.5625 4.015625 -13.4375 L 3.96875 -13.265625 L 3.75 -13.296875 L 3.65625 -13.0625 L 3.390625 -13 L 3.515625 -12.734375 C 3.285156 -12.390625 3.171875 -12.203125 3.171875 -12.171875 C 3.171875 -12.171875 3.171875 -12.164062 3.171875 -12.15625 C 3.441406 -11.101562 3.578125 -10.550781 3.578125 -10.5 C 3.515625 -9.78125 3.484375 -9.34375 3.484375 -9.1875 C 3.484375 -8.226562 3.628906 -7.632812 3.921875 -7.40625 C 4.140625 -7.226562 4.304688 -7.140625 4.421875 -7.140625 C 4.441406 -7.140625 4.523438 -7.3125 4.671875 -7.65625 L 5.65625 -8.546875 L 6.578125 -9.53125 L 7.6875 -10.3125 L 7.6875 -10.71875 L 8.015625 -10.75 C 7.796875 -10.800781 7.6875 -10.867188 7.6875 -10.953125 C 7.6875 -11.015625 7.769531 -11.195312 7.9375 -11.5 C 7.9375 -11.507812 7.9375 -11.519531 7.9375 -11.53125 C 7.9375 -11.757812 7.863281 -12.050781 7.71875 -12.40625 C 7.582031 -12.757812 7.453125 -12.992188 7.328125 -13.109375 Z M 5.21875 -13.515625 "/></g></g></g><g fill="#ffc214" fill-opacity="1"><g transform="translate(53.375326, 36.031838)"><g><path d="M 5.03125 1.8125 C 5.082031 1.8125 5.148438 1.863281 5.234375 1.96875 C 5.304688 2.050781 5.75 2.320312 6.5625 2.78125 C 6.644531 2.832031 6.738281 2.890625 6.84375 2.953125 C 7.488281 3.367188 7.960938 3.59375 8.265625 3.625 C 8.492188 3.632812 8.609375 3.675781 8.609375 3.75 L 8.59375 3.984375 L 8.8125 3.875 L 9.015625 3.921875 L 8.96875 3.6875 L 9.484375 2.234375 C 9.296875 2.140625 9.203125 2.046875 9.203125 1.953125 C 9.203125 1.648438 9.335938 1.195312 9.609375 0.59375 C 9.742188 0.3125 9.8125 0.046875 9.8125 -0.203125 C 9.8125 -0.453125 9.742188 -0.710938 9.609375 -0.984375 C 9.398438 -1.429688 9.296875 -1.6875 9.296875 -1.75 C 9.296875 -1.8125 9.382812 -1.929688 9.5625 -2.109375 L 9.25 -2.046875 C 9.25 -2.046875 9.203125 -2.082031 9.109375 -2.15625 C 9.066406 -2.1875 9.019531 -2.203125 8.96875 -2.203125 C 8.882812 -2.203125 8.289062 -1.554688 7.1875 -0.265625 L 7.0625 -0.09375 L 6.84375 -0.078125 L 6.75 0.125 C 6.613281 -0.0078125 6.539062 -0.078125 6.53125 -0.078125 C 6.519531 -0.078125 6.453125 -0.03125 6.328125 0.0625 C 6.296875 0.0820312 6.257812 0.09375 6.21875 0.09375 C 6.144531 0.09375 5.253906 -0.414062 3.546875 -1.4375 L 3.140625 -1.9375 L 2.078125 -3.09375 L 2 -3.421875 L 1.203125 -4.796875 L 1.25 -5.296875 L 1.09375 -6.859375 L 1.15625 -8.421875 C 1 -8.648438 0.921875 -8.804688 0.921875 -8.890625 C 0.921875 -9.210938 1.019531 -9.664062 1.21875 -10.25 C 1.363281 -10.644531 1.4375 -11.023438 1.4375 -11.390625 C 1.4375 -11.546875 1.378906 -11.84375 1.265625 -12.28125 C 1.253906 -12.320312 1.25 -12.359375 1.25 -12.390625 C 1.25 -12.429688 1.304688 -12.484375 1.421875 -12.546875 L 1.46875 -12.75 C 1.46875 -12.75 1.53125 -12.726562 1.65625 -12.6875 C 1.6875 -12.675781 1.710938 -12.671875 1.734375 -12.671875 C 1.835938 -12.671875 1.9375 -12.71875 2.03125 -12.8125 C 2.125 -12.914062 2.398438 -13.257812 2.859375 -13.84375 C 3.035156 -14.0625 3.46875 -14.410156 4.15625 -14.890625 C 4.65625 -15.234375 5.019531 -15.570312 5.25 -15.90625 C 5.738281 -16.625 6.054688 -16.976562 6.203125 -16.96875 C 6.296875 -16.96875 6.40625 -16.925781 6.53125 -16.84375 L 6.546875 -16.84375 C 6.546875 -16.84375 6.597656 -16.890625 6.703125 -16.984375 C 6.816406 -16.890625 6.878906 -16.84375 6.890625 -16.84375 C 6.910156 -16.84375 6.953125 -16.851562 7.015625 -16.875 C 7.109375 -16.914062 7.21875 -16.9375 7.34375 -16.9375 C 7.601562 -16.9375 8.253906 -16.726562 9.296875 -16.3125 C 9.828125 -16.101562 10.285156 -15.972656 10.671875 -15.921875 C 11.492188 -15.816406 12.023438 -15.703125 12.265625 -15.578125 C 12.535156 -15.453125 12.671875 -15.332031 12.671875 -15.21875 L 12.65625 -15.03125 L 12.703125 -13.796875 L 12.703125 -12.5625 L 12.71875 -10.984375 C 12.664062 -10.148438 12.640625 -9.660156 12.640625 -9.515625 C 12.640625 -9.117188 12.738281 -8.195312 12.9375 -6.75 C 12.957031 -6.582031 12.96875 -6.375 12.96875 -6.125 C 12.96875 -5.914062 12.960938 -5.59375 12.953125 -5.15625 C 12.941406 -4.9375 12.9375 -4.726562 12.9375 -4.53125 C 12.9375 -4.113281 12.992188 -3.75 13.109375 -3.4375 C 13.222656 -3.164062 13.28125 -2.875 13.28125 -2.5625 C 13.28125 -2.320312 13.1875 -1.878906 13 -1.234375 L 13.09375 0.34375 C 13.09375 0.507812 13.019531 0.757812 12.875 1.09375 C 12.5625 1.832031 12.40625 2.269531 12.40625 2.40625 C 12.40625 2.488281 12.488281 2.640625 12.65625 2.859375 L 12.578125 3.34375 C 12.429688 3.363281 12.332031 3.414062 12.28125 3.5 C 12.144531 3.757812 11.625 4.015625 10.71875 4.265625 C 10.238281 4.398438 9.753906 4.625 9.265625 4.9375 C 8.578125 5.375 8.164062 5.617188 8.03125 5.671875 C 7.90625 5.722656 7.34375 5.910156 6.34375 6.234375 C 6.269531 6.253906 6.234375 6.316406 6.234375 6.421875 L 6.203125 6.75 C 6.171875 6.820312 6.113281 6.851562 6.03125 6.84375 C 5.957031 6.832031 5.910156 6.789062 5.890625 6.71875 L 5.828125 6.453125 L 5.578125 6.484375 L 4.21875 5.421875 L 2.375 4.8125 C 2.332031 4.789062 2.253906 4.691406 2.140625 4.515625 C 2.035156 4.335938 1.984375 4.226562 1.984375 4.1875 C 1.984375 4.164062 2.113281 3.914062 2.375 3.4375 C 3.863281 2.5 4.628906 2.023438 4.671875 2.015625 C 4.773438 1.992188 4.894531 1.925781 5.03125 1.8125 Z M 4.578125 -13.046875 C 4.566406 -13.035156 4.566406 -13.023438 4.578125 -13.015625 C 4.804688 -12.566406 4.921875 -12.273438 4.921875 -12.140625 C 4.921875 -11.890625 4.835938 -11.492188 4.671875 -10.953125 C 4.484375 -10.328125 4.390625 -9.613281 4.390625 -8.8125 C 4.390625 -7.53125 4.660156 -6.382812 5.203125 -5.375 C 5.472656 -4.863281 5.691406 -4.523438 5.859375 -4.359375 C 5.898438 -4.328125 6.414062 -4.066406 7.40625 -3.578125 L 7.390625 -3.453125 L 8.921875 -3.171875 L 9.140625 -3.0625 L 9.203125 -3.328125 L 9.53125 -3.4375 C 9.332031 -3.582031 9.234375 -3.664062 9.234375 -3.6875 L 9.375 -4.53125 C 9.375 -4.5625 9.335938 -4.675781 9.265625 -4.875 C 9.242188 -4.9375 9.203125 -5.445312 9.140625 -6.40625 C 9.085938 -7.363281 9.0625 -8 9.0625 -8.3125 C 9.0625 -8.425781 9.066406 -8.523438 9.078125 -8.609375 C 9.148438 -9.628906 9.1875 -10.144531 9.1875 -10.15625 L 8.84375 -11.765625 L 8.921875 -12.234375 L 8.84375 -12.453125 L 8.953125 -12.734375 C 8.953125 -12.742188 8.867188 -12.765625 8.703125 -12.796875 L 7.109375 -13.421875 C 6.578125 -13.609375 6.15625 -13.738281 5.84375 -13.8125 C 5.664062 -13.84375 5.453125 -13.765625 5.203125 -13.578125 L 5 -13.4375 L 4.921875 -13.125 Z M 4.578125 -13.046875 "/></g></g></g><g fill="#ffc214" fill-opacity="1"><g transform="translate(67.576717, 36.031838)"><g><path d="M 15.875 -2.796875 L 15.515625 -2.59375 L 14.265625 -1.96875 C 13.453125 -1.332031 12.953125 -0.957031 12.765625 -0.84375 C 12.585938 -0.738281 12.25 -0.59375 11.75 -0.40625 C 11.507812 -0.332031 11.253906 -0.179688 10.984375 0.046875 C 10.960938 0.0664062 10.921875 0.078125 10.859375 0.078125 C 10.742188 0.078125 10.65625 0.0390625 10.59375 -0.03125 C 10.53125 -0.113281 10.410156 -0.332031 10.234375 -0.6875 L 10.421875 -1.90625 C 10.421875 -1.90625 10.367188 -2.222656 10.265625 -2.859375 C 10.242188 -2.992188 10.234375 -3.140625 10.234375 -3.296875 C 10.234375 -3.546875 10.238281 -3.9375 10.25 -4.46875 C 10.257812 -4.675781 10.265625 -4.90625 10.265625 -5.15625 C 10.265625 -5.5 10.253906 -5.800781 10.234375 -6.0625 C 10.179688 -6.882812 10.15625 -7.3125 10.15625 -7.34375 C 10.15625 -7.476562 10.222656 -8.125 10.359375 -9.28125 C 10.410156 -9.71875 10.4375 -10.140625 10.4375 -10.546875 C 10.4375 -11.960938 10.019531 -12.863281 9.1875 -13.25 C 8.78125 -13.4375 8.054688 -13.53125 7.015625 -13.53125 C 6.679688 -13.53125 6.460938 -13.503906 6.359375 -13.453125 C 6.265625 -13.410156 6.175781 -13.289062 6.09375 -13.09375 C 6 -12.988281 5.953125 -12.925781 5.953125 -12.90625 C 5.953125 -12.851562 5.972656 -12.765625 6.015625 -12.640625 C 6.046875 -12.535156 6.0625 -12.40625 6.0625 -12.25 L 6.046875 -11.03125 C 6.046875 -9.875 6.003906 -8.820312 5.921875 -7.875 C 5.878906 -7.425781 5.859375 -7.148438 5.859375 -7.046875 L 5.953125 -4.640625 C 5.878906 -3.429688 5.84375 -2.726562 5.84375 -2.53125 C 5.84375 -2.144531 5.882812 -1.8125 5.96875 -1.53125 C 6.070312 -1.25 6.125 -1.039062 6.125 -0.90625 C 6.125 -0.851562 6.039062 -0.734375 5.875 -0.546875 L 5.890625 -0.203125 C 5.878906 -0.140625 5.820312 -0.109375 5.71875 -0.109375 C 5.664062 -0.109375 5.519531 -0.148438 5.28125 -0.234375 L 4.203125 -0.078125 L 2.671875 0.0625 C 2.578125 0.03125 2.453125 -0.101562 2.296875 -0.34375 C 2.148438 -0.59375 2.078125 -0.78125 2.078125 -0.90625 L 2.09375 -2.203125 L 2.109375 -3.6875 L 2.375 -5.390625 C 2.144531 -6.703125 2.03125 -7.472656 2.03125 -7.703125 C 2.03125 -8.023438 2.066406 -8.394531 2.140625 -8.8125 C 2.347656 -9.820312 2.453125 -10.335938 2.453125 -10.359375 C 2.453125 -10.441406 2.394531 -10.488281 2.28125 -10.5 L 2.34375 -11.984375 C 1.78125 -12.722656 1.488281 -13.097656 1.46875 -13.109375 C 1.445312 -13.128906 1.242188 -13.1875 0.859375 -13.28125 L 0.796875 -13.390625 L 0.671875 -13.28125 L 0.5625 -13.4375 L 0.59375 -13.5625 L 0.484375 -13.65625 L 0.703125 -13.59375 C 0.710938 -13.59375 0.742188 -13.628906 0.796875 -13.703125 C 0.972656 -14.109375 1.367188 -14.460938 1.984375 -14.765625 C 2.898438 -15.203125 3.367188 -15.425781 3.390625 -15.4375 C 3.421875 -15.457031 3.945312 -15.820312 4.96875 -16.53125 C 5.070312 -16.613281 5.210938 -16.65625 5.390625 -16.65625 C 5.484375 -16.65625 5.554688 -16.640625 5.609375 -16.609375 C 5.691406 -16.554688 5.789062 -16.4375 5.90625 -16.25 C 6.03125 -16.0625 6.082031 -15.945312 6.0625 -15.90625 C 5.957031 -15.570312 5.90625 -15.394531 5.90625 -15.375 C 5.90625 -15.195312 5.976562 -15.019531 6.125 -14.84375 C 6.28125 -14.664062 6.4375 -14.578125 6.59375 -14.578125 L 7.59375 -15.390625 C 8.414062 -16.179688 8.832031 -16.582031 8.84375 -16.59375 C 8.851562 -16.601562 8.875 -16.679688 8.90625 -16.828125 L 9.421875 -16.859375 L 9.6875 -16.6875 L 11.265625 -16.546875 L 11.71875 -16.265625 L 13.109375 -15.546875 C 12.992188 -15.410156 12.9375 -15.328125 12.9375 -15.296875 C 12.9375 -15.253906 13.210938 -14.816406 13.765625 -13.984375 C 13.984375 -13.679688 14.09375 -13.34375 14.09375 -12.96875 C 14.09375 -12.84375 13.992188 -12.28125 13.796875 -11.28125 L 14.140625 -8.90625 C 14.140625 -8.832031 14.085938 -8.597656 13.984375 -8.203125 C 13.890625 -7.796875 13.84375 -7.507812 13.84375 -7.34375 L 13.921875 -5.125 L 13.828125 -3.59375 C 13.828125 -3.457031 13.863281 -3.296875 13.9375 -3.109375 C 14.019531 -2.929688 14.082031 -2.851562 14.125 -2.875 L 14.453125 -3 L 14.765625 -2.921875 C 14.921875 -3.160156 15.023438 -3.296875 15.078125 -3.328125 C 15.128906 -3.367188 15.242188 -3.390625 15.421875 -3.390625 C 15.453125 -3.390625 15.488281 -3.328125 15.53125 -3.203125 L 15.703125 -3.125 L 15.671875 -2.953125 C 15.660156 -2.847656 15.726562 -2.796875 15.875 -2.796875 Z M 15.875 -2.796875 "/></g></g></g><g fill="#ffc214" fill-opacity="1"><g transform="translate(83.790384, 36.031838)"><g><path d="M 2.421875 -5.4375 C 2.429688 -5.4375 2.445312 -5.429688 2.46875 -5.421875 C 2.601562 -5.359375 2.675781 -5.332031 2.6875 -5.34375 C 2.695312 -5.351562 2.675781 -5.425781 2.625 -5.5625 C 2.625 -5.570312 2.625 -5.582031 2.625 -5.59375 C 2.625 -5.601562 2.671875 -5.695312 2.765625 -5.875 L 2.4375 -7.578125 L 2.4375 -9.296875 L 2.140625 -11.015625 L 2.203125 -12.8125 C 2.203125 -12.957031 2.191406 -13.066406 2.171875 -13.140625 C 2.148438 -13.242188 2.140625 -13.300781 2.140625 -13.3125 C 2.148438 -13.4375 2.289062 -13.585938 2.5625 -13.765625 C 3.007812 -14.097656 3.347656 -14.484375 3.578125 -14.921875 C 3.972656 -15.671875 4.21875 -16.09375 4.3125 -16.1875 C 4.507812 -16.375 4.617188 -16.492188 4.640625 -16.546875 C 4.679688 -16.628906 4.703125 -16.671875 4.703125 -16.671875 C 4.710938 -16.679688 4.78125 -16.695312 4.90625 -16.71875 L 4.90625 -16.953125 C 5.0625 -16.847656 5.148438 -16.796875 5.171875 -16.796875 C 5.191406 -16.796875 5.332031 -16.867188 5.59375 -17.015625 C 5.675781 -17.078125 5.78125 -17.109375 5.90625 -17.109375 C 6.207031 -17.109375 6.828125 -17.023438 7.765625 -16.859375 C 8.109375 -16.804688 8.285156 -16.773438 8.296875 -16.765625 L 9.6875 -16 L 9.953125 -15.90625 L 11.28125 -14.234375 C 11.445312 -13.992188 11.53125 -13.722656 11.53125 -13.421875 C 11.53125 -13.398438 11.523438 -13.203125 11.515625 -12.828125 C 11.515625 -12.640625 11.515625 -12.347656 11.515625 -11.953125 L 11.4375 -10.140625 L 11.609375 -8.171875 C 11.609375 -8.054688 11.578125 -7.695312 11.515625 -7.09375 C 11.472656 -6.757812 11.453125 -6.453125 11.453125 -6.171875 C 11.453125 -5.429688 11.554688 -4.679688 11.765625 -3.921875 C 11.984375 -3.160156 12.191406 -2.796875 12.390625 -2.828125 L 13.03125 -2.890625 C 13.039062 -2.878906 13.054688 -2.816406 13.078125 -2.703125 C 13.160156 -2.847656 13.222656 -2.921875 13.265625 -2.921875 C 13.484375 -2.921875 13.59375 -2.800781 13.59375 -2.5625 C 13.59375 -2.550781 13.523438 -2.507812 13.390625 -2.4375 L 13.203125 -2.109375 L 12.015625 -1.21875 L 11.234375 -0.375 L 10.90625 -0.09375 C 10.75 0.132812 10.644531 0.242188 10.59375 0.234375 L 10.34375 0.1875 C 10.132812 0.1875 10.003906 0.164062 9.953125 0.125 C 9.585938 -0.0625 9.242188 -0.34375 8.921875 -0.71875 C 8.609375 -1.09375 8.421875 -1.441406 8.359375 -1.765625 C 8.335938 -1.890625 8.316406 -1.957031 8.296875 -1.96875 C 8.273438 -1.976562 8.179688 -1.988281 8.015625 -2 L 7.75 -2.109375 C 7.71875 -2.109375 7.648438 -2.050781 7.546875 -1.9375 C 7.171875 -1.457031 6.84375 -1.140625 6.5625 -0.984375 C 5.914062 -0.609375 5.59375 -0.398438 5.59375 -0.359375 L 5.609375 -0.046875 L 5.328125 0 C 5.160156 -0.0390625 5.078125 -0.0625 5.078125 -0.0625 C 5.078125 -0.0625 5.007812 0 4.875 0.125 C 4.863281 0.125 4.828125 0.132812 4.765625 0.15625 C 4.691406 0.15625 4.597656 0.0976562 4.484375 -0.015625 C 4.015625 -0.503906 3.28125 -1.070312 2.28125 -1.71875 C 1.738281 -2.0625 1.363281 -2.335938 1.15625 -2.546875 C 1.007812 -2.691406 0.90625 -2.789062 0.84375 -2.84375 C 0.675781 -2.945312 0.59375 -3.039062 0.59375 -3.125 C 0.59375 -3.238281 0.742188 -3.441406 1.046875 -3.734375 L 2.375 -5.078125 C 2.300781 -5.140625 2.265625 -5.195312 2.265625 -5.25 C 2.265625 -5.375 2.316406 -5.4375 2.421875 -5.4375 Z M 7.109375 -8.421875 C 6.984375 -8.421875 6.863281 -8.394531 6.75 -8.34375 C 6.644531 -8.289062 6.59375 -8.234375 6.59375 -8.171875 L 6.703125 -8 L 5.46875 -6.84375 L 4.359375 -5.59375 L 4.03125 -5.28125 L 4.21875 -4.984375 L 4.171875 -4.703125 C 4.171875 -4.660156 4.300781 -4.59375 4.5625 -4.5 C 4.757812 -4.4375 5.082031 -4.101562 5.53125 -3.5 C 5.738281 -3.195312 5.90625 -3.019531 6.03125 -2.96875 C 6.164062 -2.925781 6.582031 -2.890625 7.28125 -2.859375 L 7.765625 -2.640625 C 7.835938 -2.640625 7.910156 -2.695312 7.984375 -2.8125 C 8.054688 -2.9375 8.09375 -3.054688 8.09375 -3.171875 C 8.09375 -3.203125 8.066406 -3.273438 8.015625 -3.390625 C 7.960938 -3.535156 7.9375 -3.71875 7.9375 -3.9375 C 7.9375 -4.1875 7.953125 -4.46875 7.984375 -4.78125 C 8.054688 -5.632812 8.09375 -6.210938 8.09375 -6.515625 C 8.09375 -7.785156 7.765625 -8.421875 7.109375 -8.421875 Z M 5.21875 -13.515625 C 4.425781 -13.585938 4.023438 -13.5625 4.015625 -13.4375 L 3.96875 -13.265625 L 3.75 -13.296875 L 3.65625 -13.0625 L 3.390625 -13 L 3.515625 -12.734375 C 3.285156 -12.390625 3.171875 -12.203125 3.171875 -12.171875 C 3.171875 -12.171875 3.171875 -12.164062 3.171875 -12.15625 C 3.441406 -11.101562 3.578125 -10.550781 3.578125 -10.5 C 3.515625 -9.78125 3.484375 -9.34375 3.484375 -9.1875 C 3.484375 -8.226562 3.628906 -7.632812 3.921875 -7.40625 C 4.140625 -7.226562 4.304688 -7.140625 4.421875 -7.140625 C 4.441406 -7.140625 4.523438 -7.3125 4.671875 -7.65625 L 5.65625 -8.546875 L 6.578125 -9.53125 L 7.6875 -10.3125 L 7.6875 -10.71875 L 8.015625 -10.75 C 7.796875 -10.800781 7.6875 -10.867188 7.6875 -10.953125 C 7.6875 -11.015625 7.769531 -11.195312 7.9375 -11.5 C 7.9375 -11.507812 7.9375 -11.519531 7.9375 -11.53125 C 7.9375 -11.757812 7.863281 -12.050781 7.71875 -12.40625 C 7.582031 -12.757812 7.453125 -12.992188 7.328125 -13.109375 Z M 5.21875 -13.515625 "/></g></g></g><g fill="#ffc214" fill-opacity="1"><g transform="translate(97.480459, 36.031838)"><g><path d="M 9.1875 -17.046875 C 9.257812 -17.023438 9.367188 -16.910156 9.515625 -16.703125 C 10.503906 -15.640625 11.265625 -14.9375 11.796875 -14.59375 C 11.898438 -14.519531 11.945312 -14.441406 11.9375 -14.359375 C 11.9375 -14.304688 11.832031 -14.21875 11.625 -14.09375 L 11.5 -13.65625 L 10.578125 -12.875 L 9.890625 -11.859375 L 9.484375 -11.6875 L 9.25 -11.46875 L 9.046875 -11.75 L 8.65625 -11.921875 L 7.703125 -12.90625 L 6.59375 -13.734375 L 6.703125 -13.96875 L 6.53125 -13.765625 L 6.3125 -13.90625 L 6.296875 -13.765625 L 6.171875 -13.703125 L 6.171875 -13.546875 L 6.109375 -13.4375 C 6.097656 -13.414062 6.160156 -13.375 6.296875 -13.3125 C 6.378906 -13.269531 6.421875 -13.242188 6.421875 -13.234375 L 6.09375 -11.5625 C 6.070312 -11.519531 6.148438 -11.109375 6.328125 -10.328125 C 6.378906 -10.148438 6.40625 -9.894531 6.40625 -9.5625 C 6.40625 -9.238281 6.378906 -8.914062 6.328125 -8.59375 C 6.265625 -8.125 6.234375 -7.851562 6.234375 -7.78125 L 6.328125 -5.53125 L 6.203125 -5.09375 C 6.203125 -4.976562 6.34375 -4.722656 6.625 -4.328125 C 6.90625 -3.941406 7.128906 -3.691406 7.296875 -3.578125 C 7.691406 -3.304688 8.34375 -3.171875 9.25 -3.171875 C 9.425781 -3.171875 9.535156 -3.1875 9.578125 -3.21875 C 9.628906 -3.25 9.695312 -3.359375 9.78125 -3.546875 L 10.015625 -3.453125 C 10.015625 -3.453125 10.019531 -3.457031 10.03125 -3.46875 C 10.113281 -3.550781 10.171875 -3.59375 10.203125 -3.59375 C 10.273438 -3.59375 10.304688 -3.554688 10.296875 -3.484375 L 10.28125 -3.328125 C 10.351562 -2.898438 9.796875 -2.25 8.609375 -1.375 C 8.015625 -0.9375 7.613281 -0.5 7.40625 -0.0625 C 7.34375 0.0625 7.285156 0.125 7.234375 0.125 L 7.015625 -0.03125 L 6.78125 0.0625 C 6.738281 0.0625 6.695312 0.00390625 6.65625 -0.109375 C 6.507812 -0.585938 6.164062 -0.828125 5.625 -0.828125 C 5.476562 -0.828125 5.34375 -0.800781 5.21875 -0.75 L 5.09375 -0.703125 L 3.84375 -1.671875 C 3.394531 -1.929688 3.101562 -2.257812 2.96875 -2.65625 C 2.695312 -3.46875 2.5625 -4.359375 2.5625 -5.328125 L 2.59375 -6.953125 L 2.5 -8.515625 L 2.4375 -10.921875 C 2.519531 -11.691406 2.5625 -12.125 2.5625 -12.21875 C 2.5625 -12.570312 2.382812 -12.875 2.03125 -13.125 C 1.613281 -13.414062 1.359375 -13.5625 1.265625 -13.5625 C 1.203125 -13.5625 1.0625 -13.472656 0.84375 -13.296875 L 0.703125 -13.296875 L 0.515625 -13.234375 C 0.484375 -13.234375 0.46875 -13.257812 0.46875 -13.3125 C 0.46875 -13.34375 0.492188 -13.429688 0.546875 -13.578125 L 0.359375 -13.5625 L 0.328125 -13.71875 C 0.347656 -14.007812 0.929688 -14.5625 2.078125 -15.375 C 2.585938 -15.738281 3.035156 -16.21875 3.421875 -16.8125 C 3.546875 -17.019531 3.765625 -17.125 4.078125 -17.125 C 4.234375 -17.125 4.359375 -17.054688 4.453125 -16.921875 C 4.554688 -16.796875 4.828125 -16.363281 5.265625 -15.625 C 5.796875 -15.175781 6.078125 -14.9375 6.109375 -14.90625 C 6.140625 -14.882812 6.164062 -14.828125 6.1875 -14.734375 C 6.21875 -14.535156 6.25 -14.4375 6.28125 -14.4375 C 6.375 -14.4375 6.5 -14.585938 6.65625 -14.890625 L 7.53125 -15.6875 C 8.070312 -16.332031 8.367188 -16.679688 8.421875 -16.734375 C 8.484375 -16.785156 8.632812 -16.84375 8.875 -16.90625 Z M 9.1875 -17.046875 "/></g></g></g><g fill="#ffc214" fill-opacity="1"><g transform="translate(109.785032, 36.031838)"><g><path d="M 9.125 0.125 L 8.984375 0.0625 L 8.84375 0.09375 C 8.84375 0.09375 8.828125 0.0625 8.796875 0 C 8.785156 -0.0195312 8.757812 -0.03125 8.71875 -0.03125 L 8.203125 0.109375 L 6.734375 -0.421875 C 5.671875 -0.660156 5.125 -0.785156 5.09375 -0.796875 C 5.070312 -0.804688 4.925781 -0.890625 4.65625 -1.046875 C 3.894531 -1.460938 3.394531 -1.804688 3.15625 -2.078125 C 2.914062 -2.347656 2.445312 -3.140625 1.75 -4.453125 L 1.421875 -5.984375 L 1 -7.515625 L 1.171875 -7.875 L 1.203125 -9.453125 L 1.375 -11.015625 L 1.34375 -12.265625 C 1.34375 -12.273438 1.382812 -12.335938 1.46875 -12.453125 C 1.507812 -12.503906 1.53125 -12.546875 1.53125 -12.578125 C 1.53125 -12.578125 1.5 -12.632812 1.4375 -12.75 C 1.425781 -12.757812 1.421875 -12.769531 1.421875 -12.78125 L 3.203125 -14.03125 C 4.304688 -14.625 4.914062 -14.957031 5.03125 -15.03125 C 5.144531 -15.113281 5.570312 -15.476562 6.3125 -16.125 C 6.832031 -16.582031 7.359375 -16.945312 7.890625 -17.21875 C 7.953125 -17.25 7.992188 -17.273438 8.015625 -17.296875 C 8.085938 -17.367188 8.144531 -17.40625 8.1875 -17.40625 C 8.21875 -17.40625 8.359375 -17.332031 8.609375 -17.1875 C 8.617188 -17.1875 8.675781 -17.195312 8.78125 -17.21875 C 8.84375 -17.238281 8.90625 -17.25 8.96875 -17.25 C 9.289062 -17.25 9.734375 -17.101562 10.296875 -16.8125 C 10.960938 -16.457031 11.625 -16.203125 12.28125 -16.046875 C 12.519531 -16.003906 12.898438 -15.707031 13.421875 -15.15625 C 13.941406 -14.601562 14.351562 -14.078125 14.65625 -13.578125 C 15.507812 -12.160156 15.921875 -11.195312 15.890625 -10.6875 L 15.75 -8.921875 L 15.828125 -7.34375 L 15.515625 -5.796875 L 15.390625 -4.21875 C 15.210938 -3.96875 15.125 -3.820312 15.125 -3.78125 L 15.15625 -3.3125 L 14.90625 -3.328125 L 14.875 -3.140625 C 14.789062 -3.097656 14.75 -3.070312 14.75 -3.0625 L 14.765625 -2.84375 C 14.765625 -2.832031 14.28125 -2.679688 13.3125 -2.390625 C 13.300781 -2.378906 12.90625 -2.050781 12.125 -1.40625 C 11.726562 -1.082031 11.242188 -0.835938 10.671875 -0.671875 C 10.046875 -0.484375 9.660156 -0.359375 9.515625 -0.296875 C 9.367188 -0.234375 9.265625 -0.128906 9.203125 0.015625 C 9.160156 0.0859375 9.132812 0.125 9.125 0.125 Z M 10.671875 -2.59375 C 10.710938 -2.582031 10.816406 -2.492188 10.984375 -2.328125 C 11.003906 -2.316406 11.023438 -2.3125 11.046875 -2.3125 C 11.128906 -2.3125 11.238281 -2.390625 11.375 -2.546875 C 11.519531 -2.703125 11.59375 -2.828125 11.59375 -2.921875 L 11.53125 -3.890625 C 11.519531 -3.972656 11.59375 -4.160156 11.75 -4.453125 C 12 -4.960938 12.117188 -5.34375 12.109375 -5.59375 L 12.078125 -6.25 L 12.078125 -7.828125 L 11.71875 -9.375 C 11.46875 -10.6875 11.273438 -11.488281 11.140625 -11.78125 C 11.035156 -11.957031 10.957031 -12.066406 10.90625 -12.109375 C 10.851562 -12.160156 10.550781 -12.363281 10 -12.71875 L 8.71875 -13.65625 C 7.570312 -14 6.976562 -14.164062 6.9375 -14.15625 L 6.046875 -13.984375 L 5.53125 -14.109375 C 5.519531 -14.109375 5.460938 -14.039062 5.359375 -13.90625 C 5.335938 -13.875 5.285156 -13.828125 5.203125 -13.765625 C 5.078125 -13.710938 5 -13.644531 4.96875 -13.5625 C 4.9375 -13.476562 4.894531 -13.296875 4.84375 -13.015625 C 4.832031 -12.921875 4.789062 -12.34375 4.71875 -11.28125 C 4.644531 -10.21875 4.609375 -9.679688 4.609375 -9.671875 C 4.722656 -9.273438 4.832031 -8.640625 4.9375 -7.765625 C 5 -7.191406 5.125 -6.695312 5.3125 -6.28125 C 5.5 -5.863281 5.863281 -5.273438 6.40625 -4.515625 C 6.5625 -4.285156 6.679688 -4.132812 6.765625 -4.0625 C 6.847656 -4 6.988281 -3.953125 7.1875 -3.921875 C 7.570312 -3.847656 8.03125 -3.597656 8.5625 -3.171875 C 9.082031 -2.765625 9.457031 -2.5625 9.6875 -2.5625 Z M 7.671875 -22.28125 L 7.890625 -22.140625 L 8.1875 -22.21875 L 8.234375 -22.09375 L 8.46875 -21.890625 L 8.421875 -21.609375 L 8.546875 -21.265625 C 8.546875 -21.222656 8.128906 -20.773438 7.296875 -19.921875 C 6.671875 -19.296875 6.347656 -18.953125 6.328125 -18.890625 C 6.222656 -18.609375 6.148438 -18.476562 6.109375 -18.5 L 5.796875 -18.671875 C 5.273438 -18.671875 5.015625 -18.875 5.015625 -19.28125 C 5.015625 -19.457031 5.113281 -19.640625 5.3125 -19.828125 C 5.46875 -19.984375 5.703125 -20.390625 6.015625 -21.046875 C 6.328125 -21.703125 6.671875 -22.035156 7.046875 -22.046875 C 7.304688 -22.054688 7.441406 -22.070312 7.453125 -22.09375 C 7.460938 -22.09375 7.535156 -22.15625 7.671875 -22.28125 Z M 11.671875 -22.4375 L 12.03125 -22.265625 L 12.328125 -22.40625 L 12.46875 -22.09375 L 12.671875 -22.0625 L 12.734375 -21.796875 C 12.898438 -21.671875 12.984375 -21.597656 12.984375 -21.578125 C 12.984375 -21.523438 12.945312 -21.453125 12.875 -21.359375 C 12.8125 -21.273438 12.734375 -21.164062 12.640625 -21.03125 C 12.328125 -20.550781 12.117188 -20.25 12.015625 -20.125 C 11.921875 -20.007812 11.523438 -19.597656 10.828125 -18.890625 L 10.546875 -18.59375 C 10.304688 -18.6875 10.160156 -18.734375 10.109375 -18.734375 C 10.066406 -18.734375 9.929688 -18.675781 9.703125 -18.5625 L 9.78125 -18.890625 L 9.53125 -19.140625 L 9.53125 -19.34375 L 9.484375 -19.640625 C 9.484375 -19.640625 9.859375 -20.070312 10.609375 -20.9375 C 11.203125 -21.476562 11.515625 -21.785156 11.546875 -21.859375 C 11.554688 -21.890625 11.597656 -22.082031 11.671875 -22.4375 Z M 11.671875 -22.4375 "/></g></g></g><g fill="#ffc214" fill-opacity="1"><g transform="translate(126.69145, 36.031838)"><g><path d="M 5.4375 -6.390625 C 5.40625 -6.210938 5.332031 -6.039062 5.21875 -5.875 L 5.40625 -4.390625 L 5.203125 -2.890625 L 5.28125 -1.71875 L 5.265625 -0.71875 C 5.335938 -0.59375 5.378906 -0.503906 5.390625 -0.453125 C 5.390625 -0.429688 5.269531 -0.398438 5.03125 -0.359375 C 4.988281 -0.078125 4.929688 0.0625 4.859375 0.0625 C 4.785156 0.0625 4.703125 0.0390625 4.609375 0 C 4.253906 -0.15625 4.03125 -0.226562 3.9375 -0.21875 L 2.25 -0.0625 C 2.09375 -0.15625 1.960938 -0.226562 1.859375 -0.28125 C 1.804688 -0.3125 1.757812 -0.40625 1.71875 -0.5625 L 1.484375 -0.765625 L 1.71875 -2.328125 L 1.546875 -3.328125 L 1.5625 -4.921875 L 1.5625 -5.546875 L 1.703125 -7.03125 L 1.609375 -8.53125 L 1.703125 -10.03125 L 1.484375 -11.515625 L 1.65625 -13.015625 L 1.65625 -14.515625 L 1.71875 -16.015625 L 1.53125 -17.5 C 1.613281 -18.695312 1.65625 -19.375 1.65625 -19.53125 C 1.65625 -20.125 1.578125 -20.890625 1.421875 -21.828125 C 1.335938 -22.285156 1.296875 -22.6875 1.296875 -23.03125 C 1.296875 -23.113281 1.316406 -23.203125 1.359375 -23.296875 C 1.390625 -23.410156 1.40625 -23.472656 1.40625 -23.484375 L 1.34375 -23.984375 C 1.34375 -23.992188 1.445312 -24.039062 1.65625 -24.125 C 1.738281 -24.3125 1.789062 -24.421875 1.8125 -24.453125 C 1.84375 -24.484375 1.90625 -24.5 2 -24.5 C 2.039062 -24.5 2.394531 -24.46875 3.0625 -24.40625 L 4.515625 -24.625 C 4.546875 -24.625 4.648438 -24.519531 4.828125 -24.3125 L 5.125 -24.234375 L 5.125 -23.9375 L 5.265625 -23.65625 L 5.140625 -22.0625 L 5.21875 -21.5 L 5.203125 -19.78125 C 5.203125 -19.707031 5.222656 -19.441406 5.265625 -18.984375 C 5.304688 -18.554688 5.328125 -18.148438 5.328125 -17.765625 C 5.328125 -17.585938 5.328125 -17.414062 5.328125 -17.25 C 5.304688 -16.550781 5.296875 -16.09375 5.296875 -15.875 C 5.296875 -15.40625 5.398438 -15.085938 5.609375 -14.921875 C 5.816406 -14.765625 5.96875 -14.6875 6.0625 -14.6875 C 6.15625 -14.6875 6.238281 -14.710938 6.3125 -14.765625 C 6.382812 -14.828125 6.585938 -15.03125 6.921875 -15.375 L 8.328125 -16.71875 C 8.535156 -16.945312 8.675781 -17.0625 8.75 -17.0625 C 8.757812 -17.0625 8.769531 -17.054688 8.78125 -17.046875 C 8.882812 -16.921875 8.941406 -16.859375 8.953125 -16.859375 C 9.015625 -16.859375 9.128906 -16.894531 9.296875 -16.96875 C 9.367188 -16.988281 9.429688 -17 9.484375 -17 C 9.804688 -17 10.210938 -16.742188 10.703125 -16.234375 C 10.929688 -16.003906 11.082031 -15.847656 11.15625 -15.765625 C 11.78125 -15.191406 12.160156 -14.773438 12.296875 -14.515625 C 12.441406 -14.265625 12.515625 -13.859375 12.515625 -13.296875 C 12.515625 -12.660156 12.289062 -12.085938 11.84375 -11.578125 C 11.414062 -11.097656 10.90625 -10.617188 10.3125 -10.140625 C 9.582031 -9.566406 9.179688 -9.1875 9.109375 -9 C 9.046875 -8.882812 8.9375 -8.75 8.78125 -8.59375 C 9.1875 -8.445312 9.441406 -8.316406 9.546875 -8.203125 C 9.648438 -8.085938 9.828125 -7.742188 10.078125 -7.171875 C 10.296875 -6.628906 10.460938 -6.28125 10.578125 -6.125 C 10.703125 -5.976562 11.21875 -5.441406 12.125 -4.515625 L 13.71875 -2.609375 L 13.8125 -2.34375 C 13.8125 -2.332031 13.753906 -2.257812 13.640625 -2.125 L 13.46875 -1.71875 L 11.75 -0.34375 C 11.625 -0.21875 11.421875 -0.132812 11.140625 -0.09375 L 10.796875 -0.015625 C 10.734375 -0.0234375 10.671875 -0.113281 10.609375 -0.28125 C 10.503906 -0.53125 10.335938 -0.796875 10.109375 -1.078125 C 9.878906 -1.359375 9.160156 -2.144531 7.953125 -3.4375 C 7.378906 -4.050781 7.050781 -4.414062 6.96875 -4.53125 C 6.882812 -4.644531 6.597656 -5.1875 6.109375 -6.15625 C 6.066406 -6.207031 5.921875 -6.242188 5.671875 -6.265625 Z M 6.296875 -7.75 L 6.3125 -7.75 L 7.46875 -8.8125 C 8.25 -9.53125 8.660156 -9.914062 8.703125 -9.96875 C 9.097656 -10.425781 9.296875 -10.9375 9.296875 -11.5 C 9.296875 -12.039062 8.957031 -12.585938 8.28125 -13.140625 C 7.613281 -13.691406 7.097656 -13.96875 6.734375 -13.96875 C 6.660156 -13.96875 6.304688 -13.8125 5.671875 -13.5 L 5.546875 -13.515625 L 5.4375 -13.3125 L 5.09375 -13.15625 C 5.09375 -13.144531 5.144531 -13.066406 5.25 -12.921875 C 5.300781 -12.828125 5.328125 -12.738281 5.328125 -12.65625 C 5.328125 -12.4375 5.289062 -12.015625 5.21875 -11.390625 C 5.144531 -10.878906 5.109375 -9.972656 5.109375 -8.671875 C 5.109375 -8.378906 5.128906 -8.191406 5.171875 -8.109375 C 5.222656 -8.035156 5.359375 -7.96875 5.578125 -7.90625 L 5.75 -7.671875 L 6 -7.90625 Z M 6.296875 -7.75 "/></g></g></g><path fill="#f7831a" d="M 167 24.839844 L 163.101562 24.839844 L 163.101562 25.953125 L 167.003906 25.953125 L 167 24.839844 " fill-opacity="1" fill-rule="nonzero"/><path fill="#f7831a" d="M 154.742188 24.839844 L 154.742188 25.953125 L 158.644531 25.953125 L 158.644531 24.839844 L 154.742188 24.839844 " fill-opacity="1" fill-rule="nonzero"/><g clip-path="url(#478726a20f)"><path fill="#f7831a" d="M 153.628906 31.523438 C 153.628906 31.21875 153.878906 30.96875 154.183594 30.96875 C 154.492188 30.96875 154.742188 31.21875 154.742188 31.523438 L 154.742188 34.3125 C 154.742188 34.617188 154.492188 34.867188 154.183594 34.867188 C 153.878906 34.867188 153.628906 34.617188 153.628906 34.3125 Z M 156.972656 31.523438 C 156.972656 31.21875 157.222656 30.96875 157.527344 30.96875 C 157.835938 30.96875 158.085938 31.21875 158.085938 31.523438 L 158.085938 36.539062 C 158.085938 36.847656 157.835938 37.097656 157.527344 37.097656 C 157.222656 37.097656 156.972656 36.847656 156.972656 36.539062 Z M 160.3125 31.523438 C 160.3125 31.21875 160.566406 30.96875 160.871094 30.96875 C 161.179688 30.96875 161.429688 31.21875 161.429688 31.523438 L 161.429688 37.652344 C 161.429688 37.960938 161.179688 38.210938 160.871094 38.210938 C 160.566406 38.210938 160.3125 37.960938 160.3125 37.652344 Z M 163.65625 31.523438 C 163.65625 31.21875 163.90625 30.96875 164.214844 30.96875 C 164.519531 30.96875 164.773438 31.21875 164.773438 31.523438 L 164.773438 36.539062 C 164.773438 36.847656 164.519531 37.097656 164.214844 37.097656 C 163.90625 37.097656 163.65625 36.847656 163.65625 36.539062 Z M 167 31.523438 C 167 31.21875 167.25 30.96875 167.558594 30.96875 C 167.863281 30.96875 168.113281 31.21875 168.113281 31.523438 L 168.113281 34.3125 C 168.113281 34.617188 167.863281 34.867188 167.558594 34.867188 C 167.25 34.867188 167 34.617188 167 34.3125 Z M 153.089844 35.460938 C 154.273438 36.625 156.542969 38.238281 160.617188 39.296875 C 160.78125 39.335938 160.960938 39.335938 161.125 39.296875 C 165.199219 38.238281 167.46875 36.625 168.65625 35.460938 C 169.128906 34.992188 169.414062 34.363281 169.460938 33.695312 L 169.785156 28.882812 C 169.789062 28.8125 169.757812 28.777344 169.722656 28.757812 C 169.679688 28.730469 169.636719 28.730469 169.59375 28.761719 C 168.5625 29.421875 166.820312 30.207031 164.398438 30.207031 C 163.214844 30.207031 161.910156 30.011719 160.914062 29.683594 C 160.882812 29.671875 160.859375 29.671875 160.828125 29.683594 C 159.832031 30.011719 158.53125 30.207031 157.34375 30.207031 C 154.921875 30.207031 153.183594 29.421875 152.148438 28.761719 C 152.125 28.746094 152.105469 28.738281 152.082031 28.738281 C 152.058594 28.738281 152.039062 28.746094 152.019531 28.757812 C 151.988281 28.777344 151.953125 28.8125 151.957031 28.878906 L 152.28125 33.695312 C 152.328125 34.363281 152.613281 34.992188 153.089844 35.460938 " fill-opacity="1" fill-rule="nonzero"/></g><path fill="#f7831a" d="M 163.101562 23.722656 L 167 23.722656 C 167.613281 23.722656 168.113281 24.226562 168.113281 24.839844 L 168.113281 25.953125 C 168.113281 26.566406 167.613281 27.066406 167 27.066406 L 163.101562 27.066406 C 162.488281 27.066406 161.984375 26.566406 161.984375 25.953125 L 161.984375 24.839844 C 161.984375 24.226562 162.488281 23.722656 163.101562 23.722656 Z M 161.429688 22.609375 C 161.429688 22.917969 161.179688 23.167969 160.871094 23.167969 C 160.566406 23.167969 160.3125 22.917969 160.3125 22.609375 L 160.3125 18.710938 C 160.3125 18.398438 160.566406 18.152344 160.871094 18.152344 C 161.179688 18.152344 161.429688 18.398438 161.429688 18.710938 Z M 159.757812 25.953125 C 159.757812 26.566406 159.257812 27.066406 158.644531 27.066406 L 154.742188 27.066406 C 154.128906 27.066406 153.628906 26.566406 153.628906 25.953125 L 153.628906 24.839844 C 153.628906 24.226562 154.128906 23.722656 154.742188 23.722656 L 158.644531 23.722656 C 159.257812 23.722656 159.757812 24.226562 159.757812 24.839844 Z M 162.320312 16.777344 L 162.109375 15.921875 L 159.636719 15.921875 L 159.425781 16.777344 C 159.367188 16.996094 159.1875 17.160156 158.964844 17.195312 C 158.210938 17.304688 157.417969 17.472656 156.613281 17.6875 C 154.199219 18.328125 152.511719 20.53125 152.511719 23.046875 L 152.511719 27.710938 C 152.59375 27.742188 152.675781 27.773438 152.75 27.820312 C 153.65625 28.402344 155.191406 29.089844 157.34375 29.089844 C 158.417969 29.089844 159.589844 28.917969 160.480469 28.625 C 160.738281 28.539062 161.007812 28.539062 161.261719 28.625 C 162.152344 28.917969 163.328125 29.089844 164.398438 29.089844 C 166.550781 29.089844 168.085938 28.402344 168.996094 27.820312 C 169.066406 27.773438 169.148438 27.742188 169.230469 27.714844 L 169.230469 23.046875 C 169.230469 20.53125 167.542969 18.328125 165.132812 17.6875 C 164.324219 17.472656 163.535156 17.304688 162.777344 17.195312 C 162.554688 17.160156 162.375 16.996094 162.320312 16.777344 " fill-opacity="1" fill-rule="nonzero"/><g clip-path="url(#fa56014339)"><path fill="#f7831a" d="M 148.640625 11.5625 C 148.796875 13.117188 149.53125 14.808594 151.964844 14.808594 C 153.96875 14.808594 155.449219 13.933594 156.75 12.984375 C 157.257812 12.613281 157.90625 12.535156 158.484375 12.773438 C 159.058594 13.007812 159.464844 13.515625 159.566406 14.128906 L 159.675781 14.808594 L 162.445312 14.808594 C 162.84375 14.652344 164.695312 13.8125 165.199219 11.558594 C 164.664062 11.867188 164.144531 12.023438 163.660156 12.023438 C 163.351562 12.023438 163.101562 11.773438 163.101562 11.464844 C 163.101562 11.332031 163.015625 8.121094 158.652344 8.121094 C 156.84375 8.121094 155.851562 9.050781 154.800781 10.035156 C 153.753906 11.011719 152.675781 12.023438 150.851562 12.023438 C 149.980469 12.023438 149.238281 11.867188 148.640625 11.5625 " fill-opacity="1" fill-rule="nonzero"/></g></svg>