<svg xmlns="http://www.w3.org/2000/svg" xmlns:xlink="http://www.w3.org/1999/xlink" width="40" zoomAndPan="magnify" viewBox="0 0 30 30.000001" height="40" preserveAspectRatio="xMidYMid meet" version="1.0"><defs><clipPath id="da8506b273"><path d="M 6.839844 11 L 22.804688 11 L 22.804688 26.507812 L 6.839844 26.507812 Z M 6.839844 11 " clip-rule="nonzero"/></clipPath><clipPath id="458f1f3474"><path d="M 8 12 L 22.804688 12 L 22.804688 26.507812 L 8 26.507812 Z M 8 12 " clip-rule="nonzero"/></clipPath><clipPath id="c7a15903a2"><path d="M 9 2.558594 L 21 2.558594 L 21 13 L 9 13 Z M 9 2.558594 " clip-rule="nonzero"/></clipPath></defs><g clip-path="url(#da8506b273)"><path fill="#ffc214" d="M 23.023438 24.792969 C 23.023438 25.644531 22.261719 26.332031 21.320312 26.332031 L 8.675781 26.332031 C 7.734375 26.332031 6.972656 25.644531 6.972656 24.792969 L 6.972656 13.511719 C 6.972656 12.660156 7.734375 11.96875 8.675781 11.96875 L 21.320312 11.96875 C 22.261719 11.96875 23.023438 12.660156 23.023438 13.511719 L 23.023438 24.792969 " fill-opacity="1" fill-rule="nonzero"/><path fill="#a6a6a6" d="M 23.023438 24.792969 L 22.886719 24.792969 C 22.886719 25.175781 22.71875 25.527344 22.433594 25.78125 C 22.152344 26.039062 21.757812 26.199219 21.320312 26.199219 L 8.675781 26.199219 C 8.238281 26.199219 7.84375 26.039062 7.5625 25.78125 C 7.277344 25.527344 7.105469 25.175781 7.105469 24.792969 L 7.105469 13.511719 C 7.105469 13.125 7.277344 12.777344 7.5625 12.519531 C 7.84375 12.265625 8.238281 12.105469 8.675781 12.105469 L 21.320312 12.105469 C 21.757812 12.105469 22.152344 12.265625 22.433594 12.519531 C 22.71875 12.777344 22.886719 13.125 22.886719 13.511719 L 22.886719 24.792969 L 23.15625 24.792969 L 23.15625 13.511719 C 23.15625 13.046875 22.945312 12.625 22.613281 12.324219 C 22.28125 12.019531 21.824219 11.835938 21.320312 11.835938 L 8.675781 11.835938 C 8.171875 11.835938 7.714844 12.019531 7.382812 12.324219 C 7.046875 12.625 6.839844 13.046875 6.839844 13.511719 L 6.839844 24.792969 C 6.839844 25.257812 7.046875 25.679688 7.382812 25.980469 C 7.714844 26.28125 8.171875 26.46875 8.675781 26.46875 L 21.320312 26.46875 C 21.824219 26.46875 22.28125 26.28125 22.613281 25.980469 C 22.949219 25.679688 23.15625 25.257812 23.15625 24.792969 L 23.023438 24.792969 " fill-opacity="1" fill-rule="nonzero"/></g><g clip-path="url(#458f1f3474)"><path fill="#ffc214" d="M 23.023438 24.894531 C 23.023438 25.691406 22.367188 26.332031 21.554688 26.332031 L 10.191406 26.332031 C 9.378906 26.332031 8.722656 25.691406 8.722656 24.894531 L 8.722656 14.378906 C 8.722656 13.585938 9.378906 12.941406 10.191406 12.941406 L 21.554688 12.941406 C 22.367188 12.941406 23.023438 13.585938 23.023438 14.378906 L 23.023438 24.894531 " fill-opacity="1" fill-rule="nonzero"/><path fill="#a6a6a6" d="M 23.023438 24.894531 L 22.886719 24.894531 C 22.886719 25.253906 22.742188 25.578125 22.5 25.816406 C 22.257812 26.050781 21.925781 26.199219 21.554688 26.199219 L 10.191406 26.199219 C 9.820312 26.199219 9.488281 26.050781 9.246094 25.816406 C 9.007812 25.578125 8.859375 25.253906 8.859375 24.894531 L 8.859375 14.378906 C 8.859375 14.019531 9.007812 13.695312 9.246094 13.460938 C 9.488281 13.222656 9.820312 13.078125 10.191406 13.078125 L 21.554688 13.078125 C 21.925781 13.078125 22.257812 13.222656 22.5 13.460938 C 22.742188 13.695312 22.886719 14.019531 22.886719 14.378906 L 22.886719 24.894531 L 23.15625 24.894531 L 23.15625 14.378906 C 23.15625 13.945312 22.976562 13.550781 22.6875 13.265625 C 22.398438 12.984375 21.996094 12.808594 21.554688 12.808594 L 10.191406 12.808594 C 9.75 12.808594 9.347656 12.984375 9.058594 13.265625 C 8.769531 13.550781 8.589844 13.945312 8.589844 14.378906 L 8.589844 24.894531 C 8.589844 25.332031 8.769531 25.722656 9.058594 26.007812 C 9.347656 26.292969 9.75 26.46875 10.191406 26.46875 L 21.554688 26.46875 C 21.996094 26.46875 22.398438 26.292969 22.6875 26.007812 C 22.976562 25.722656 23.15625 25.332031 23.15625 24.894531 L 23.023438 24.894531 " fill-opacity="1" fill-rule="nonzero"/></g><path fill="#a6a6a6" d="M 17.59375 17.902344 C 17.59375 16.867188 16.753906 16.03125 15.722656 16.03125 C 14.6875 16.03125 13.851562 16.867188 13.851562 17.902344 C 13.851562 18.617188 14.253906 19.238281 14.839844 19.554688 L 14.839844 21.425781 C 14.839844 21.910156 15.234375 22.304688 15.722656 22.304688 C 16.207031 22.304688 16.601562 21.910156 16.601562 21.425781 L 16.601562 19.554688 C 17.191406 19.238281 17.59375 18.617188 17.59375 17.902344 " fill-opacity="1" fill-rule="nonzero"/><g clip-path="url(#c7a15903a2)"><path fill="#ffc214" d="M 15.097656 2.699219 C 12.023438 2.699219 9.527344 4.835938 9.527344 7.472656 C 9.527344 7.472656 9.527344 11.382812 9.527344 11.929688 C 9.527344 12.476562 11.769531 12.628906 11.769531 11.929688 C 11.769531 11.234375 11.769531 8.683594 11.769531 8.683594 C 11.769531 6.765625 13.257812 5.210938 15.097656 5.210938 C 16.9375 5.210938 18.429688 6.765625 18.429688 8.683594 C 18.429688 8.683594 18.429688 11.179688 18.429688 11.929688 C 18.429688 12.679688 20.671875 12.628906 20.671875 11.929688 C 20.671875 11.234375 20.671875 7.472656 20.671875 7.472656 C 20.671875 4.835938 18.175781 2.699219 15.097656 2.699219 " fill-opacity="1" fill-rule="nonzero"/><path fill="#a6a6a6" d="M 15.097656 2.699219 L 15.097656 2.566406 C 13.527344 2.566406 12.105469 3.109375 11.070312 3.996094 C 10.039062 4.878906 9.390625 6.109375 9.394531 7.472656 C 9.394531 7.472656 9.394531 11.382812 9.394531 11.929688 C 9.390625 11.992188 9.410156 12.050781 9.4375 12.097656 C 9.488281 12.1875 9.566406 12.25 9.65625 12.300781 C 9.792969 12.378906 9.960938 12.4375 10.152344 12.472656 C 10.339844 12.511719 10.546875 12.53125 10.75 12.53125 C 11.023438 12.53125 11.289062 12.496094 11.503906 12.410156 C 11.613281 12.367188 11.707031 12.3125 11.78125 12.230469 C 11.816406 12.191406 11.847656 12.148438 11.871094 12.09375 C 11.890625 12.042969 11.902344 11.988281 11.902344 11.929688 C 11.902344 11.582031 11.902344 10.769531 11.902344 10.046875 C 11.902344 9.320312 11.902344 8.683594 11.902344 8.683594 C 11.902344 7.757812 12.261719 6.925781 12.839844 6.320312 C 13.421875 5.714844 14.21875 5.34375 15.097656 5.34375 C 15.980469 5.34375 16.777344 5.714844 17.355469 6.320312 C 17.933594 6.925781 18.292969 7.757812 18.292969 8.683594 C 18.292969 8.683594 18.292969 11.179688 18.292969 11.929688 C 18.292969 11.992188 18.304688 12.054688 18.328125 12.109375 C 18.367188 12.207031 18.433594 12.285156 18.515625 12.347656 C 18.640625 12.441406 18.796875 12.503906 18.96875 12.546875 C 19.140625 12.585938 19.328125 12.605469 19.519531 12.605469 C 19.820312 12.605469 20.121094 12.558594 20.359375 12.457031 C 20.480469 12.40625 20.585938 12.34375 20.667969 12.257812 C 20.707031 12.214844 20.742188 12.164062 20.765625 12.109375 C 20.792969 12.054688 20.804688 11.992188 20.804688 11.929688 C 20.804688 11.582031 20.804688 10.464844 20.804688 9.4375 C 20.804688 8.925781 20.804688 8.433594 20.804688 8.070312 C 20.804688 7.886719 20.804688 7.738281 20.804688 7.632812 C 20.804688 7.53125 20.804688 7.472656 20.804688 7.472656 C 20.804688 6.109375 20.160156 4.878906 19.125 3.996094 C 18.089844 3.109375 16.667969 2.566406 15.097656 2.566406 L 15.097656 2.832031 C 16.605469 2.832031 17.96875 3.355469 18.949219 4.199219 C 19.933594 5.042969 20.535156 6.195312 20.535156 7.472656 C 20.535156 7.472656 20.535156 11.234375 20.535156 11.929688 C 20.535156 11.957031 20.53125 11.976562 20.519531 12 C 20.503906 12.042969 20.46875 12.085938 20.410156 12.128906 C 20.324219 12.191406 20.1875 12.246094 20.03125 12.28125 C 19.875 12.320312 19.695312 12.339844 19.519531 12.339844 C 19.257812 12.339844 19 12.296875 18.820312 12.214844 C 18.730469 12.175781 18.664062 12.128906 18.621094 12.082031 C 18.601562 12.058594 18.585938 12.035156 18.578125 12.007812 C 18.566406 11.984375 18.5625 11.960938 18.5625 11.929688 C 18.5625 11.554688 18.5625 10.742188 18.5625 10.023438 C 18.5625 9.308594 18.5625 8.683594 18.5625 8.683594 C 18.5625 7.6875 18.175781 6.789062 17.550781 6.132812 C 16.925781 5.480469 16.054688 5.074219 15.097656 5.074219 C 14.140625 5.074219 13.273438 5.480469 12.648438 6.132812 C 12.019531 6.789062 11.632812 7.6875 11.632812 8.683594 C 11.632812 8.683594 11.632812 11.234375 11.632812 11.929688 C 11.632812 11.953125 11.628906 11.972656 11.621094 11.992188 C 11.609375 12.027344 11.582031 12.058594 11.535156 12.09375 C 11.464844 12.144531 11.347656 12.191406 11.210938 12.21875 C 11.074219 12.25 10.914062 12.261719 10.75 12.261719 C 10.464844 12.265625 10.171875 12.21875 9.960938 12.144531 C 9.855469 12.109375 9.769531 12.0625 9.722656 12.023438 C 9.695312 12 9.679688 11.980469 9.671875 11.96875 C 9.664062 11.953125 9.660156 11.941406 9.660156 11.929688 C 9.660156 11.65625 9.660156 10.542969 9.660156 9.496094 C 9.660156 8.972656 9.660156 8.464844 9.660156 8.089844 C 9.660156 7.902344 9.660156 7.75 9.660156 7.640625 C 9.660156 7.53125 9.660156 7.472656 9.660156 7.472656 C 9.660156 6.195312 10.261719 5.042969 11.246094 4.199219 C 12.230469 3.355469 13.589844 2.832031 15.097656 2.832031 L 15.097656 2.699219 " fill-opacity="1" fill-rule="nonzero"/></g></svg>