<svg xmlns="http://www.w3.org/2000/svg" xmlns:xlink="http://www.w3.org/1999/xlink" width="1024" zoomAndPan="magnify" viewBox="0 0 768 767.999994" height="1024" preserveAspectRatio="xMidYMid meet" version="1.0"><defs><clipPath id="bb890b6132"><path d="M 276.671875 230.398438 L 491.171875 230.398438 L 491.171875 537.898438 L 276.671875 537.898438 Z M 276.671875 230.398438 " clip-rule="nonzero"/></clipPath></defs><g clip-path="url(#bb890b6132)"><path fill="#fffff6" d="M 472.367188 509.648438 C 472.363281 512.035156 471.40625 514.160156 469.800781 515.78125 C 468.179688 517.386719 466.042969 518.347656 463.648438 518.347656 L 304.351562 518.347656 C 301.949219 518.34375 299.824219 517.386719 298.207031 515.785156 C 296.605469 514.167969 295.648438 512.039062 295.644531 509.648438 L 295.644531 382.136719 C 295.648438 379.75 296.601562 377.621094 298.207031 376.003906 C 299.824219 374.398438 301.953125 373.445312 304.351562 373.4375 L 463.648438 373.4375 C 466.039062 373.4375 468.171875 374.398438 469.800781 376.003906 C 471.40625 377.632812 472.363281 379.761719 472.367188 382.136719 Z M 336.339844 266.40625 C 346.730469 256.039062 360.972656 249.652344 376.808594 249.648438 L 391.207031 249.648438 C 407.042969 249.652344 421.285156 256.039062 431.675781 266.40625 C 442.042969 276.796875 448.429688 291.039062 448.433594 306.871094 L 448.433594 354.464844 L 319.582031 354.464844 L 319.582031 306.871094 C 319.589844 291.039062 325.96875 276.796875 336.339844 266.40625 Z M 467.40625 354.757812 L 467.40625 306.871094 C 467.398438 264.785156 433.296875 230.679688 391.207031 230.675781 L 376.808594 230.675781 C 334.71875 230.679688 300.613281 264.785156 300.609375 306.871094 L 300.609375 354.753906 C 287.09375 356.605469 276.703125 368.136719 276.671875 382.136719 L 276.671875 509.648438 C 276.699219 524.925781 289.058594 537.292969 304.351562 537.320312 L 463.648438 537.320312 C 478.929688 537.285156 491.300781 524.945312 491.339844 509.648438 L 491.339844 382.136719 C 491.300781 368.132812 480.902344 356.621094 467.40625 354.757812 " fill-opacity="1" fill-rule="nonzero"/></g><path fill="#fffff6" d="M 402.976562 428.5 C 402.976562 418.019531 394.484375 409.527344 384.007812 409.527344 C 373.527344 409.527344 365.035156 418.019531 365.035156 428.5 C 365.035156 436.226562 369.671875 442.847656 376.292969 445.804688 L 362.757812 482.253906 L 405.253906 482.253906 L 391.71875 445.804688 C 398.339844 442.847656 402.976562 436.226562 402.976562 428.5 " fill-opacity="1" fill-rule="nonzero"/></svg>