<svg xmlns="http://www.w3.org/2000/svg" xmlns:xlink="http://www.w3.org/1999/xlink" width="40" zoomAndPan="magnify" viewBox="0 0 30 30.000001" height="40" preserveAspectRatio="xMidYMid meet" version="1.0"><defs><clipPath id="c3e066542a"><path d="M 14 16 L 27.339844 16 L 27.339844 28.652344 L 14 28.652344 Z M 14 16 " clip-rule="nonzero"/></clipPath><clipPath id="dd14de22bc"><path d="M 7 0.34375 L 19 0.34375 L 19 11 L 7 11 Z M 7 0.34375 " clip-rule="nonzero"/></clipPath><clipPath id="14e4b54df5"><path d="M 3.386719 12 L 22 12 L 22 25 L 3.386719 25 Z M 3.386719 12 " clip-rule="nonzero"/></clipPath></defs><g clip-path="url(#c3e066542a)"><path fill="#f7831a" d="M 26.71875 20.949219 L 25.988281 20.824219 C 25.898438 20.554688 25.792969 20.296875 25.664062 20.042969 L 26.09375 19.441406 C 26.175781 19.328125 26.210938 19.203125 26.199219 19.066406 C 26.1875 18.925781 26.132812 18.808594 26.035156 18.710938 L 24.699219 17.375 C 24.597656 17.277344 24.480469 17.222656 24.34375 17.210938 C 24.207031 17.199219 24.082031 17.234375 23.96875 17.3125 L 23.363281 17.746094 C 23.113281 17.617188 22.851562 17.507812 22.582031 17.421875 L 22.460938 16.691406 C 22.4375 16.554688 22.375 16.441406 22.269531 16.351562 C 22.164062 16.261719 22.039062 16.214844 21.902344 16.214844 L 20.011719 16.214844 C 19.875 16.214844 19.75 16.261719 19.644531 16.351562 C 19.539062 16.441406 19.476562 16.554688 19.453125 16.691406 L 19.332031 17.421875 C 19.0625 17.507812 18.800781 17.617188 18.550781 17.746094 L 17.945312 17.3125 C 17.832031 17.234375 17.707031 17.199219 17.570312 17.210938 C 17.433594 17.222656 17.3125 17.277344 17.214844 17.375 L 15.878906 18.710938 C 15.78125 18.808594 15.726562 18.925781 15.714844 19.066406 C 15.703125 19.203125 15.738281 19.328125 15.820312 19.441406 L 16.25 20.042969 C 16.121094 20.296875 16.015625 20.554688 15.925781 20.824219 L 15.195312 20.949219 C 15.058594 20.96875 14.945312 21.035156 14.855469 21.140625 C 14.765625 21.246094 14.722656 21.367188 14.722656 21.507812 L 14.722656 23.394531 C 14.722656 23.53125 14.765625 23.65625 14.855469 23.761719 C 14.945312 23.867188 15.058594 23.929688 15.195312 23.953125 L 15.925781 24.078125 C 16.015625 24.347656 16.121094 24.605469 16.25 24.855469 L 15.820312 25.460938 C 15.738281 25.574219 15.703125 25.699219 15.714844 25.835938 C 15.726562 25.976562 15.78125 26.09375 15.878906 26.191406 L 17.214844 27.527344 C 17.3125 27.625 17.433594 27.679688 17.570312 27.691406 C 17.707031 27.703125 17.832031 27.667969 17.945312 27.585938 L 18.550781 27.15625 C 18.800781 27.285156 19.0625 27.394531 19.332031 27.480469 L 19.453125 28.210938 C 19.476562 28.347656 19.539062 28.460938 19.644531 28.550781 C 19.75 28.640625 19.875 28.683594 20.011719 28.683594 L 21.902344 28.683594 C 22.039062 28.683594 22.164062 28.640625 22.269531 28.550781 C 22.375 28.460938 22.4375 28.347656 22.460938 28.210938 L 22.582031 27.480469 C 22.851562 27.394531 23.113281 27.285156 23.363281 27.15625 L 23.96875 27.585938 C 24.082031 27.667969 24.207031 27.703125 24.34375 27.691406 C 24.480469 27.679688 24.597656 27.625 24.699219 27.527344 L 26.035156 26.191406 C 26.132812 26.09375 26.1875 25.976562 26.199219 25.835938 C 26.210938 25.699219 26.175781 25.574219 26.09375 25.460938 L 25.664062 24.855469 C 25.792969 24.605469 25.898438 24.347656 25.988281 24.078125 L 26.71875 23.953125 C 26.855469 23.929688 26.96875 23.867188 27.058594 23.761719 C 27.148438 23.65625 27.191406 23.53125 27.191406 23.394531 L 27.191406 21.507812 C 27.191406 21.367188 27.148438 21.246094 27.058594 21.140625 C 26.96875 21.035156 26.855469 20.96875 26.71875 20.949219 Z M 26.058594 22.914062 L 25.445312 23.015625 C 25.203125 23.058594 25.050781 23.203125 24.992188 23.441406 C 24.890625 23.851562 24.730469 24.238281 24.511719 24.601562 C 24.382812 24.8125 24.390625 25.019531 24.535156 25.222656 L 24.894531 25.730469 L 24.238281 26.386719 L 23.734375 26.023438 C 23.53125 25.882812 23.324219 25.875 23.109375 26 C 22.75 26.222656 22.363281 26.382812 21.949219 26.484375 C 21.710938 26.542969 21.570312 26.695312 21.527344 26.9375 L 21.425781 27.546875 L 20.496094 27.546875 L 20.394531 26.9375 C 20.351562 26.695312 20.210938 26.542969 19.96875 26.484375 C 19.558594 26.382812 19.171875 26.222656 18.808594 26 C 18.597656 25.875 18.390625 25.882812 18.1875 26.023438 L 17.683594 26.386719 L 17.023438 25.730469 L 17.386719 25.222656 C 17.53125 25.019531 17.539062 24.8125 17.410156 24.601562 C 17.1875 24.238281 17.027344 23.851562 16.929688 23.441406 C 16.871094 23.203125 16.71875 23.058594 16.476562 23.015625 L 15.863281 22.914062 L 15.863281 21.984375 L 16.476562 21.882812 C 16.71875 21.839844 16.871094 21.699219 16.929688 21.457031 C 17.027344 21.046875 17.1875 20.664062 17.410156 20.300781 C 17.539062 20.089844 17.53125 19.878906 17.386719 19.675781 L 17.023438 19.171875 L 17.683594 18.515625 L 18.1875 18.875 C 18.390625 19.019531 18.597656 19.027344 18.808594 18.898438 C 19.171875 18.679688 19.558594 18.519531 19.96875 18.417969 C 20.210938 18.359375 20.351562 18.207031 20.394531 17.964844 L 20.496094 17.351562 L 21.425781 17.351562 L 21.527344 17.964844 C 21.570312 18.207031 21.710938 18.359375 21.949219 18.417969 C 22.363281 18.519531 22.75 18.679688 23.109375 18.898438 C 23.324219 19.027344 23.53125 19.019531 23.734375 18.875 L 24.238281 18.515625 L 24.894531 19.171875 L 24.535156 19.675781 C 24.390625 19.878906 24.382812 20.089844 24.511719 20.300781 C 24.730469 20.664062 24.890625 21.046875 24.992188 21.457031 C 25.050781 21.699219 25.203125 21.839844 25.445312 21.882812 L 26.058594 21.984375 Z M 26.058594 22.914062 " fill-opacity="1" fill-rule="nonzero"/></g><path fill="#f7831a" d="M 20.957031 19.617188 C 20.582031 19.617188 20.21875 19.6875 19.871094 19.832031 C 19.523438 19.976562 19.21875 20.179688 18.953125 20.445312 C 18.6875 20.710938 18.484375 21.019531 18.339844 21.367188 C 18.195312 21.714844 18.121094 22.074219 18.121094 22.449219 C 18.121094 22.828125 18.195312 23.1875 18.339844 23.535156 C 18.484375 23.882812 18.6875 24.1875 18.953125 24.453125 C 19.21875 24.71875 19.523438 24.925781 19.871094 25.070312 C 20.21875 25.210938 20.582031 25.285156 20.957031 25.285156 C 21.332031 25.285156 21.695312 25.210938 22.042969 25.070312 C 22.386719 24.925781 22.695312 24.71875 22.960938 24.453125 C 23.226562 24.1875 23.429688 23.882812 23.574219 23.535156 C 23.71875 23.1875 23.789062 22.828125 23.789062 22.449219 C 23.789062 22.074219 23.71875 21.714844 23.574219 21.367188 C 23.429688 21.019531 23.226562 20.710938 22.960938 20.445312 C 22.695312 20.179688 22.386719 19.976562 22.042969 19.832031 C 21.695312 19.6875 21.332031 19.617188 20.957031 19.617188 Z M 20.957031 24.152344 C 20.730469 24.152344 20.515625 24.109375 20.304688 24.019531 C 20.097656 23.933594 19.914062 23.8125 19.753906 23.652344 C 19.59375 23.492188 19.472656 23.308594 19.386719 23.101562 C 19.300781 22.894531 19.257812 22.675781 19.257812 22.449219 C 19.257812 22.226562 19.300781 22.007812 19.386719 21.800781 C 19.472656 21.589844 19.59375 21.40625 19.753906 21.25 C 19.914062 21.089844 20.097656 20.964844 20.304688 20.878906 C 20.515625 20.792969 20.730469 20.75 20.957031 20.75 C 21.183594 20.75 21.398438 20.792969 21.609375 20.878906 C 21.816406 20.964844 22 21.089844 22.160156 21.25 C 22.320312 21.40625 22.441406 21.589844 22.527344 21.800781 C 22.613281 22.007812 22.65625 22.226562 22.65625 22.449219 C 22.65625 22.675781 22.613281 22.894531 22.527344 23.101562 C 22.441406 23.308594 22.320312 23.492188 22.160156 23.652344 C 22 23.8125 21.816406 23.933594 21.609375 24.019531 C 21.398438 24.109375 21.183594 24.152344 20.957031 24.152344 Z M 20.957031 24.152344 " fill-opacity="1" fill-rule="nonzero"/><g clip-path="url(#dd14de22bc)"><path fill="#f7831a" d="M 13.023438 10.546875 C 13.355469 10.546875 13.6875 10.515625 14.015625 10.449219 C 14.347656 10.386719 14.664062 10.289062 14.972656 10.160156 C 15.285156 10.03125 15.578125 9.875 15.855469 9.6875 C 16.132812 9.503906 16.390625 9.292969 16.628906 9.054688 C 16.867188 8.816406 17.078125 8.558594 17.261719 8.28125 C 17.449219 8.003906 17.605469 7.710938 17.734375 7.398438 C 17.863281 7.089844 17.960938 6.769531 18.023438 6.441406 C 18.089844 6.113281 18.121094 5.78125 18.121094 5.449219 C 18.121094 5.113281 18.089844 4.78125 18.023438 4.453125 C 17.960938 4.125 17.863281 3.804688 17.734375 3.496094 C 17.605469 3.1875 17.449219 2.890625 17.261719 2.613281 C 17.078125 2.335938 16.867188 2.078125 16.628906 1.839844 C 16.390625 1.605469 16.132812 1.390625 15.855469 1.207031 C 15.578125 1.019531 15.285156 0.863281 14.972656 0.734375 C 14.664062 0.605469 14.347656 0.511719 14.015625 0.445312 C 13.6875 0.378906 13.355469 0.347656 13.023438 0.347656 C 12.6875 0.347656 12.355469 0.378906 12.027344 0.445312 C 11.699219 0.511719 11.378906 0.605469 11.070312 0.734375 C 10.761719 0.863281 10.464844 1.019531 10.1875 1.207031 C 9.910156 1.390625 9.652344 1.605469 9.414062 1.839844 C 9.179688 2.078125 8.96875 2.335938 8.78125 2.613281 C 8.59375 2.890625 8.4375 3.1875 8.308594 3.496094 C 8.179688 3.804688 8.085938 4.125 8.019531 4.453125 C 7.953125 4.78125 7.921875 5.113281 7.921875 5.449219 C 7.921875 5.78125 7.953125 6.113281 8.019531 6.441406 C 8.085938 6.769531 8.183594 7.089844 8.3125 7.398438 C 8.4375 7.707031 8.597656 8 8.78125 8.28125 C 8.96875 8.558594 9.179688 8.816406 9.417969 9.054688 C 9.652344 9.289062 9.910156 9.5 10.191406 9.6875 C 10.46875 9.875 10.761719 10.03125 11.070312 10.160156 C 11.378906 10.285156 11.699219 10.382812 12.027344 10.449219 C 12.355469 10.515625 12.6875 10.546875 13.023438 10.546875 Z M 13.023438 1.480469 C 13.28125 1.480469 13.539062 1.503906 13.796875 1.554688 C 14.050781 1.605469 14.300781 1.683594 14.539062 1.78125 C 14.78125 1.882812 15.007812 2.003906 15.226562 2.148438 C 15.441406 2.292969 15.644531 2.457031 15.828125 2.640625 C 16.011719 2.828125 16.175781 3.027344 16.320312 3.242188 C 16.464844 3.460938 16.585938 3.6875 16.6875 3.929688 C 16.789062 4.171875 16.863281 4.417969 16.914062 4.671875 C 16.964844 4.929688 16.988281 5.1875 16.988281 5.449219 C 16.988281 5.707031 16.964844 5.964844 16.914062 6.222656 C 16.863281 6.476562 16.789062 6.726562 16.6875 6.964844 C 16.585938 7.207031 16.464844 7.433594 16.320312 7.652344 C 16.175781 7.867188 16.011719 8.070312 15.828125 8.253906 C 15.644531 8.4375 15.441406 8.601562 15.226562 8.746094 C 15.007812 8.890625 14.78125 9.011719 14.539062 9.113281 C 14.300781 9.210938 14.050781 9.289062 13.796875 9.339844 C 13.539062 9.390625 13.28125 9.414062 13.023438 9.414062 C 12.761719 9.414062 12.503906 9.390625 12.25 9.339844 C 11.992188 9.289062 11.746094 9.210938 11.503906 9.113281 C 11.261719 9.011719 11.035156 8.890625 10.816406 8.746094 C 10.601562 8.601562 10.402344 8.4375 10.214844 8.253906 C 10.03125 8.070312 9.867188 7.867188 9.722656 7.652344 C 9.578125 7.433594 9.457031 7.207031 9.355469 6.964844 C 9.257812 6.726562 9.183594 6.476562 9.132812 6.222656 C 9.082031 5.964844 9.054688 5.707031 9.054688 5.449219 C 9.054688 5.1875 9.082031 4.929688 9.132812 4.671875 C 9.183594 4.417969 9.257812 4.171875 9.355469 3.929688 C 9.457031 3.6875 9.578125 3.460938 9.722656 3.242188 C 9.867188 3.027344 10.03125 2.828125 10.214844 2.640625 C 10.402344 2.457031 10.601562 2.292969 10.816406 2.148438 C 11.035156 2.003906 11.261719 1.882812 11.503906 1.78125 C 11.746094 1.683594 11.992188 1.605469 12.25 1.554688 C 12.503906 1.503906 12.761719 1.480469 13.023438 1.480469 Z M 13.023438 1.480469 " fill-opacity="1" fill-rule="nonzero"/></g><g clip-path="url(#14e4b54df5)"><path fill="#f7831a" d="M 13.023438 23.015625 L 5.808594 23.015625 C 5.636719 23.015625 5.472656 22.984375 5.316406 22.917969 C 5.160156 22.851562 5.019531 22.761719 4.898438 22.640625 C 4.777344 22.519531 4.683594 22.378906 4.617188 22.222656 C 4.554688 22.0625 4.519531 21.898438 4.519531 21.730469 L 4.519531 16.8125 C 4.519531 16.433594 4.59375 16.066406 4.738281 15.714844 C 4.886719 15.367188 5.089844 15.058594 5.359375 14.789062 C 5.628906 14.519531 5.9375 14.3125 6.289062 14.167969 C 6.636719 14.023438 7.003906 13.949219 7.382812 13.949219 L 18.660156 13.949219 C 19.511719 13.949219 20.21875 14.265625 20.789062 14.894531 C 20.894531 15.011719 21.023438 15.074219 21.179688 15.082031 C 21.335938 15.089844 21.472656 15.042969 21.589844 14.9375 C 21.703125 14.832031 21.765625 14.703125 21.773438 14.546875 C 21.78125 14.390625 21.734375 14.253906 21.628906 14.136719 C 21.25 13.714844 20.800781 13.390625 20.285156 13.160156 C 19.769531 12.929688 19.226562 12.816406 18.660156 12.816406 L 7.382812 12.816406 C 7.121094 12.816406 6.859375 12.839844 6.605469 12.894531 C 6.347656 12.945312 6.097656 13.019531 5.855469 13.121094 C 5.613281 13.222656 5.382812 13.34375 5.164062 13.492188 C 4.945312 13.636719 4.746094 13.800781 4.558594 13.988281 C 4.375 14.171875 4.207031 14.375 4.0625 14.59375 C 3.917969 14.808594 3.792969 15.039062 3.691406 15.28125 C 3.59375 15.523438 3.515625 15.773438 3.464844 16.03125 C 3.414062 16.289062 3.386719 16.550781 3.386719 16.8125 L 3.386719 21.730469 C 3.386719 22.050781 3.449219 22.359375 3.574219 22.65625 C 3.695312 22.953125 3.871094 23.214844 4.097656 23.441406 C 4.324219 23.667969 4.585938 23.84375 4.882812 23.964844 C 5.179688 24.089844 5.488281 24.152344 5.808594 24.152344 L 13.023438 24.152344 C 13.179688 24.152344 13.3125 24.09375 13.421875 23.984375 C 13.535156 23.875 13.589844 23.742188 13.589844 23.585938 C 13.589844 23.425781 13.535156 23.292969 13.421875 23.183594 C 13.3125 23.074219 13.179688 23.015625 13.023438 23.015625 Z M 13.023438 23.015625 " fill-opacity="1" fill-rule="nonzero"/></g></svg>