<svg xmlns="http://www.w3.org/2000/svg" xmlns:xlink="http://www.w3.org/1999/xlink" width="1024" zoomAndPan="magnify" viewBox="0 0 768 767.999994" height="1024" preserveAspectRatio="xMidYMid meet" version="1.0"><defs><clipPath id="ca76050405"><path d="M 235 274.367188 L 532 274.367188 L 532 395 L 235 395 Z M 235 274.367188 " clip-rule="nonzero"/></clipPath><clipPath id="80fa3d69a1"><path d="M 230.398438 311 L 537.898438 311 L 537.898438 493.367188 L 230.398438 493.367188 Z M 230.398438 311 " clip-rule="nonzero"/></clipPath></defs><g clip-path="url(#ca76050405)"><path fill="#fffff6" d="M 363.902344 387.59375 C 365.332031 388.691406 366.84375 389.664062 368.433594 390.515625 C 370.019531 391.363281 371.667969 392.078125 373.375 392.65625 C 375.082031 393.238281 376.824219 393.675781 378.605469 393.96875 C 380.382812 394.261719 382.171875 394.410156 383.976562 394.410156 C 385.777344 394.410156 387.570312 394.261719 389.347656 393.96875 C 391.125 393.675781 392.867188 393.238281 394.574219 392.65625 C 396.28125 392.078125 397.929688 391.363281 399.519531 390.515625 C 401.109375 389.664062 402.617188 388.691406 404.046875 387.59375 L 531.4375 288.335938 C 529.925781 286.179688 528.179688 284.230469 526.199219 282.496094 C 524.214844 280.761719 522.058594 279.285156 519.722656 278.070312 C 517.382812 276.851562 514.9375 275.933594 512.378906 275.304688 C 509.820312 274.679688 507.222656 274.367188 504.589844 274.367188 L 263.40625 274.367188 C 262.015625 274.371094 260.632812 274.460938 259.253906 274.640625 C 257.875 274.820312 256.515625 275.085938 255.171875 275.4375 C 253.828125 275.789062 252.511719 276.226562 251.222656 276.746094 C 249.933594 277.265625 248.683594 277.863281 247.46875 278.539062 C 246.257812 279.21875 245.089844 279.972656 243.972656 280.796875 C 242.855469 281.625 241.796875 282.519531 240.792969 283.480469 C 239.789062 284.441406 238.851562 285.460938 237.976562 286.542969 C 237.101562 287.621094 236.300781 288.753906 235.570312 289.933594 Z M 363.902344 387.59375 " fill-opacity="1" fill-rule="nonzero"/></g><g clip-path="url(#80fa3d69a1)"><path fill="#fffff6" d="M 417.476562 404.96875 C 416.289062 405.882812 415.066406 406.746094 413.804688 407.558594 C 412.546875 408.371094 411.257812 409.128906 409.933594 409.835938 C 408.613281 410.542969 407.265625 411.195312 405.890625 411.792969 C 404.515625 412.386719 403.117188 412.925781 401.699219 413.410156 C 400.277344 413.890625 398.84375 414.3125 397.386719 414.679688 C 395.933594 415.042969 394.46875 415.347656 392.988281 415.589844 C 391.511719 415.835938 390.023438 416.019531 388.53125 416.140625 C 387.035156 416.265625 385.539062 416.324219 384.042969 416.324219 C 382.542969 416.324219 381.046875 416.265625 379.550781 416.140625 C 378.058594 416.019531 376.574219 415.835938 375.09375 415.589844 C 373.613281 415.347656 372.148438 415.042969 370.695312 414.679688 C 369.242188 414.3125 367.804688 413.890625 366.386719 413.410156 C 364.964844 412.925781 363.570312 412.386719 362.195312 411.792969 C 360.820312 411.195312 359.46875 410.542969 358.148438 409.835938 C 356.828125 409.128906 355.535156 408.371094 354.277344 407.558594 C 353.019531 406.746094 351.792969 405.882812 350.605469 404.96875 L 230.515625 313.648438 L 230.515625 460.738281 C 230.515625 461.8125 230.570312 462.890625 230.675781 463.960938 C 230.78125 465.03125 230.9375 466.097656 231.148438 467.152344 C 231.359375 468.210938 231.621094 469.253906 231.933594 470.285156 C 232.246094 471.316406 232.609375 472.328125 233.019531 473.324219 C 233.433594 474.316406 233.894531 475.289062 234.402344 476.242188 C 234.910156 477.191406 235.460938 478.113281 236.058594 479.007812 C 236.660156 479.90625 237.300781 480.769531 237.984375 481.601562 C 238.664062 482.433594 239.386719 483.230469 240.148438 483.992188 C 240.910156 484.753906 241.707031 485.476562 242.542969 486.160156 C 243.375 486.84375 244.238281 487.484375 245.132812 488.082031 C 246.03125 488.679688 246.953125 489.234375 247.902344 489.742188 C 248.851562 490.25 249.824219 490.710938 250.820312 491.121094 C 251.816406 491.535156 252.828125 491.898438 253.859375 492.210938 C 254.890625 492.523438 255.933594 492.785156 256.988281 492.992188 C 258.046875 493.203125 259.109375 493.363281 260.183594 493.46875 C 261.253906 493.574219 262.328125 493.625 263.40625 493.625 L 504.589844 493.625 C 505.667969 493.625 506.742188 493.574219 507.8125 493.46875 C 508.886719 493.363281 509.949219 493.203125 511.003906 492.992188 C 512.0625 492.785156 513.105469 492.523438 514.136719 492.210938 C 515.167969 491.898438 516.179688 491.535156 517.175781 491.121094 C 518.171875 490.710938 519.144531 490.25 520.09375 489.742188 C 521.042969 489.234375 521.964844 488.679688 522.863281 488.082031 C 523.757812 487.484375 524.621094 486.84375 525.453125 486.160156 C 526.285156 485.476562 527.082031 484.753906 527.84375 483.992188 C 528.605469 483.230469 529.328125 482.433594 530.011719 481.601562 C 530.695312 480.769531 531.335938 479.90625 531.933594 479.007812 C 532.535156 478.113281 533.085938 477.191406 533.59375 476.242188 C 534.101562 475.289062 534.5625 474.316406 534.972656 473.324219 C 535.386719 472.328125 535.75 471.316406 536.0625 470.285156 C 536.375 469.253906 536.636719 468.210938 536.847656 467.152344 C 537.054688 466.097656 537.214844 465.03125 537.320312 463.960938 C 537.425781 462.890625 537.476562 461.8125 537.476562 460.738281 L 537.476562 311.476562 Z M 417.476562 404.96875 " fill-opacity="1" fill-rule="nonzero"/></g></svg>