<svg xmlns="http://www.w3.org/2000/svg" xmlns:xlink="http://www.w3.org/1999/xlink" width="40" zoomAndPan="magnify" viewBox="0 0 30 30.000001" height="40" preserveAspectRatio="xMidYMid meet" version="1.0"><defs><clipPath id="5c34288376"><path d="M 4.195312 20 L 12 20 L 12 28 L 4.195312 28 Z M 4.195312 20 " clip-rule="nonzero"/></clipPath><clipPath id="38627d1368"><path d="M 4.195312 19 L 12 19 L 12 28.105469 L 4.195312 28.105469 Z M 4.195312 19 " clip-rule="nonzero"/></clipPath><clipPath id="6b043a7be1"><path d="M 9 1.25 L 25.800781 1.25 L 25.800781 22 L 9 22 Z M 9 1.25 " clip-rule="nonzero"/></clipPath><clipPath id="0ef59d7be8"><path d="M 9 1.25 L 25.800781 1.25 L 25.800781 21 L 9 21 Z M 9 1.25 " clip-rule="nonzero"/></clipPath></defs><g clip-path="url(#5c34288376)"><path fill="#433634" d="M 11.222656 21.742188 L 9.128906 20.082031 L 4.292969 26.832031 L 5.566406 27.84375 L 11.222656 21.742188 " fill-opacity="1" fill-rule="nonzero"/></g><g clip-path="url(#38627d1368)"><path fill="#713e20" d="M 11.222656 21.742188 L 11.078125 21.925781 L 9.175781 20.417969 L 4.613281 26.785156 L 5.542969 27.527344 L 11.050781 21.582031 L 11.222656 21.742188 L 11.078125 21.925781 L 11.222656 21.742188 L 11.390625 21.902344 L 5.738281 28.003906 C 5.65625 28.09375 5.519531 28.105469 5.421875 28.027344 L 4.148438 27.015625 C 4.050781 26.9375 4.03125 26.796875 4.101562 26.695312 L 8.941406 19.945312 C 8.976562 19.890625 9.035156 19.859375 9.097656 19.851562 C 9.160156 19.839844 9.222656 19.859375 9.273438 19.898438 L 11.367188 21.558594 C 11.417969 21.601562 11.449219 21.660156 11.453125 21.726562 C 11.457031 21.789062 11.4375 21.855469 11.390625 21.902344 L 11.222656 21.742188 " fill-opacity="1" fill-rule="nonzero"/></g><path fill="#f4be50" d="M 14.144531 24.613281 C 13.828125 24.359375 13.691406 23.964844 13.75 23.589844 C 12.808594 23.261719 11.441406 22.472656 10.039062 21.386719 C 8.449219 20.15625 7.234375 18.875 6.777344 18.027344 C 6.425781 18.179688 6 18.140625 5.679688 17.882812 C 5.207031 17.511719 5.128906 16.824219 5.5 16.351562 C 5.871094 15.878906 6.554688 15.800781 7.023438 16.171875 C 7.316406 16.40625 7.457031 16.757812 7.433594 17.105469 C 8.363281 17.3125 9.925781 18.171875 11.542969 19.425781 C 13.066406 20.601562 14.242188 21.824219 14.742188 22.671875 C 15 22.652344 15.269531 22.726562 15.492188 22.902344 C 15.960938 23.273438 16.042969 23.960938 15.671875 24.433594 C 15.296875 24.90625 14.613281 24.984375 14.144531 24.613281 " fill-opacity="1" fill-rule="nonzero"/><path fill="#713e20" d="M 14.144531 24.613281 L 14.015625 24.777344 C 13.855469 24.648438 13.730469 24.488281 13.652344 24.316406 C 13.570312 24.140625 13.527344 23.949219 13.527344 23.761719 C 13.527344 23.691406 13.535156 23.625 13.542969 23.558594 L 13.75 23.589844 L 13.683594 23.789062 C 13.4375 23.703125 13.167969 23.589844 12.878906 23.449219 C 12.445312 23.238281 11.96875 22.972656 11.46875 22.652344 C 10.96875 22.332031 10.441406 21.960938 9.910156 21.550781 C 9.109375 20.929688 8.402344 20.296875 7.832031 19.707031 C 7.550781 19.414062 7.300781 19.132812 7.09375 18.867188 C 6.882812 18.601562 6.714844 18.351562 6.59375 18.125 L 6.777344 18.027344 L 6.859375 18.21875 C 6.695312 18.289062 6.519531 18.328125 6.34375 18.328125 C 6.203125 18.328125 6.066406 18.304688 5.929688 18.257812 C 5.796875 18.210938 5.664062 18.140625 5.546875 18.046875 C 5.386719 17.921875 5.261719 17.761719 5.179688 17.585938 C 5.097656 17.410156 5.054688 17.21875 5.054688 17.027344 C 5.054688 16.886719 5.078125 16.746094 5.125 16.609375 C 5.171875 16.472656 5.242188 16.339844 5.335938 16.222656 C 5.464844 16.058594 5.621094 15.933594 5.796875 15.851562 C 5.972656 15.769531 6.160156 15.726562 6.351562 15.726562 C 6.492188 15.726562 6.632812 15.75 6.769531 15.796875 C 6.90625 15.84375 7.035156 15.914062 7.15625 16.007812 C 7.316406 16.136719 7.4375 16.296875 7.523438 16.472656 C 7.605469 16.644531 7.644531 16.835938 7.644531 17.027344 C 7.644531 17.058594 7.644531 17.089844 7.644531 17.117188 L 7.433594 17.105469 L 7.480469 16.898438 C 7.730469 16.953125 8.011719 17.050781 8.324219 17.183594 C 8.789062 17.386719 9.320312 17.667969 9.886719 18.015625 C 10.453125 18.367188 11.058594 18.785156 11.671875 19.257812 C 12.441406 19.851562 13.121094 20.460938 13.675781 21.027344 C 13.953125 21.308594 14.199219 21.582031 14.40625 21.839844 C 14.617188 22.097656 14.789062 22.34375 14.921875 22.566406 L 14.742188 22.671875 L 14.726562 22.460938 C 14.757812 22.460938 14.789062 22.460938 14.820312 22.460938 C 14.960938 22.460938 15.101562 22.480469 15.238281 22.527344 C 15.375 22.574219 15.503906 22.640625 15.621094 22.738281 C 15.785156 22.863281 15.90625 23.023438 15.988281 23.199219 C 16.070312 23.375 16.113281 23.566406 16.113281 23.757812 C 16.113281 23.898438 16.089844 24.039062 16.042969 24.175781 C 16 24.3125 15.929688 24.445312 15.835938 24.5625 C 15.707031 24.726562 15.546875 24.851562 15.375 24.933594 C 15.199219 25.015625 15.007812 25.058594 14.816406 25.058594 C 14.675781 25.058594 14.535156 25.035156 14.398438 24.988281 C 14.265625 24.941406 14.132812 24.871094 14.015625 24.777344 L 14.273438 24.449219 C 14.355469 24.511719 14.445312 24.558594 14.535156 24.589844 C 14.625 24.621094 14.722656 24.636719 14.816406 24.636719 C 14.949219 24.636719 15.078125 24.609375 15.195312 24.554688 C 15.3125 24.496094 15.417969 24.414062 15.507812 24.304688 C 15.570312 24.222656 15.617188 24.132812 15.648438 24.042969 C 15.679688 23.949219 15.695312 23.851562 15.695312 23.757812 C 15.695312 23.628906 15.667969 23.496094 15.609375 23.378906 C 15.554688 23.261719 15.472656 23.152344 15.363281 23.066406 C 15.28125 23.003906 15.195312 22.957031 15.105469 22.925781 C 15.011719 22.894531 14.917969 22.878906 14.820312 22.878906 C 14.800781 22.878906 14.777344 22.878906 14.753906 22.882812 C 14.675781 22.886719 14.601562 22.847656 14.558594 22.777344 C 14.441406 22.578125 14.28125 22.351562 14.082031 22.105469 C 13.785156 21.738281 13.398438 21.328125 12.949219 20.898438 C 12.5 20.472656 11.980469 20.027344 11.417969 19.589844 C 10.617188 18.972656 9.828125 18.449219 9.128906 18.058594 C 8.78125 17.859375 8.453125 17.699219 8.160156 17.570312 C 7.863281 17.445312 7.601562 17.355469 7.386719 17.308594 C 7.289062 17.285156 7.21875 17.191406 7.226562 17.089844 C 7.226562 17.070312 7.226562 17.050781 7.226562 17.027344 C 7.226562 16.898438 7.199219 16.769531 7.144531 16.652344 C 7.085938 16.53125 7.003906 16.425781 6.894531 16.335938 C 6.816406 16.273438 6.726562 16.226562 6.632812 16.195312 C 6.542969 16.164062 6.449219 16.148438 6.351562 16.148438 C 6.222656 16.148438 6.09375 16.175781 5.976562 16.230469 C 5.859375 16.289062 5.75 16.371094 5.664062 16.480469 C 5.601562 16.5625 5.554688 16.652344 5.519531 16.742188 C 5.488281 16.835938 5.476562 16.933594 5.476562 17.027344 C 5.476562 17.15625 5.503906 17.289062 5.558594 17.40625 C 5.613281 17.523438 5.699219 17.632812 5.808594 17.71875 C 5.886719 17.78125 5.972656 17.828125 6.066406 17.859375 C 6.15625 17.890625 6.25 17.90625 6.34375 17.90625 C 6.464844 17.90625 6.585938 17.882812 6.695312 17.832031 C 6.796875 17.789062 6.910156 17.832031 6.960938 17.925781 C 7.066406 18.125 7.222656 18.355469 7.421875 18.605469 C 7.714844 18.984375 8.109375 19.410156 8.574219 19.851562 C 9.039062 20.296875 9.578125 20.761719 10.167969 21.21875 C 10.863281 21.757812 11.546875 22.222656 12.171875 22.589844 C 12.484375 22.777344 12.785156 22.9375 13.0625 23.070312 C 13.335938 23.207031 13.59375 23.3125 13.820312 23.394531 C 13.914062 23.425781 13.972656 23.523438 13.957031 23.621094 C 13.949219 23.667969 13.945312 23.714844 13.945312 23.761719 C 13.945312 23.890625 13.972656 24.019531 14.03125 24.136719 C 14.085938 24.253906 14.164062 24.359375 14.273438 24.449219 L 14.144531 24.613281 " fill-opacity="1" fill-rule="nonzero"/><path fill="#d8a74a" d="M 15.636719 24.058594 C 15.765625 23.710938 15.667969 23.308594 15.363281 23.066406 C 15.234375 22.964844 15.078125 22.902344 14.914062 22.882812 C 14.882812 22.882812 14.851562 22.878906 14.820312 22.878906 C 14.800781 22.878906 14.777344 22.878906 14.753906 22.882812 C 14.75 22.882812 14.746094 22.882812 14.742188 22.882812 C 14.742188 22.882812 14.742188 22.882812 14.738281 22.882812 C 14.6875 22.882812 14.636719 22.863281 14.597656 22.824219 C 14.582031 22.8125 14.570312 22.796875 14.558594 22.777344 C 14.441406 22.578125 14.28125 22.351562 14.082031 22.105469 C 13.785156 21.738281 13.398438 21.328125 12.949219 20.898438 C 12.664062 20.628906 12.351562 20.351562 12.015625 20.074219 C 11.894531 19.96875 11.765625 19.867188 11.636719 19.765625 L 11.417969 19.589844 C 10.023438 18.515625 8.589844 17.679688 7.648438 17.382812 C 8.40625 17.9375 9.117188 18.625 9.617188 18.933594 C 11.050781 19.824219 12.667969 20.886719 13.804688 22.148438 C 14.378906 22.789062 15.078125 23.386719 15.636719 24.058594 " fill-opacity="1" fill-rule="nonzero"/><path fill="#65381e" d="M 14.914062 22.882812 C 14.882812 22.882812 14.851562 22.878906 14.820312 22.878906 C 14.800781 22.878906 14.777344 22.878906 14.753906 22.882812 C 14.75 22.882812 14.746094 22.882812 14.742188 22.882812 C 14.746094 22.882812 14.75 22.882812 14.753906 22.882812 C 14.777344 22.878906 14.800781 22.878906 14.820312 22.878906 C 14.851562 22.878906 14.882812 22.882812 14.914062 22.882812 M 14.597656 22.824219 C 14.582031 22.8125 14.570312 22.796875 14.558594 22.777344 C 14.128906 22.042969 13.195312 21.050781 12.015625 20.074219 C 12.351562 20.351562 12.664062 20.628906 12.949219 20.898438 C 13.398438 21.328125 13.785156 21.738281 14.082031 22.105469 C 14.28125 22.351562 14.441406 22.578125 14.558594 22.777344 C 14.570312 22.796875 14.582031 22.8125 14.597656 22.824219 " fill-opacity="1" fill-rule="nonzero"/><path fill="#d8a74a" d="M 7.226562 17.09375 C 7.226562 17.09375 7.226562 17.089844 7.226562 17.089844 C 7.226562 17.070312 7.226562 17.050781 7.226562 17.027344 C 7.226562 16.898438 7.199219 16.769531 7.144531 16.652344 C 7.136719 16.632812 7.125 16.617188 7.117188 16.597656 C 7.085938 16.542969 7.046875 16.488281 7.003906 16.441406 C 6.984375 16.417969 6.960938 16.390625 6.933594 16.371094 C 6.921875 16.359375 6.910156 16.347656 6.894531 16.335938 C 6.734375 16.210938 6.542969 16.148438 6.351562 16.148438 C 6.09375 16.148438 5.835938 16.261719 5.664062 16.480469 C 5.636719 16.515625 5.617188 16.550781 5.597656 16.585938 C 5.660156 16.578125 5.722656 16.574219 5.789062 16.574219 C 6.25 16.574219 6.738281 16.785156 7.226562 17.09375 " fill-opacity="1" fill-rule="nonzero"/><path fill="#65381e" d="M 7.226562 17.09375 C 7.226562 17.09375 7.226562 17.089844 7.226562 17.089844 C 7.238281 16.917969 7.199219 16.746094 7.117188 16.597656 C 7.125 16.617188 7.136719 16.632812 7.144531 16.652344 C 7.199219 16.769531 7.226562 16.898438 7.226562 17.027344 C 7.226562 17.050781 7.226562 17.070312 7.226562 17.089844 C 7.226562 17.089844 7.226562 17.09375 7.226562 17.09375 M 7.003906 16.441406 C 6.984375 16.417969 6.957031 16.390625 6.933594 16.371094 C 6.960938 16.390625 6.984375 16.417969 7.003906 16.441406 " fill-opacity="1" fill-rule="nonzero"/><g clip-path="url(#6b043a7be1)"><path fill="#979699" d="M 24.929688 6.832031 C 24.929688 6.832031 25.792969 2.097656 25.304688 1.707031 C 24.726562 1.25 20.417969 3.25 20.417969 3.25 C 19.300781 4.878906 18.460938 6.175781 17.300781 7.835938 C 16.328125 9.253906 15.09375 11.011719 14.121094 12.429688 C 13.210938 13.761719 12.296875 15.089844 11.382812 16.417969 C 10.847656 17.199219 9.675781 18.929688 9.632812 18.996094 C 9.609375 19.988281 11.5 21.390625 12.15625 21.011719 C 12.238281 20.964844 13.304688 19.746094 13.421875 19.613281 C 14.449219 18.472656 15.480469 17.332031 16.507812 16.191406 C 17.734375 14.824219 18.964844 13.460938 20.191406 12.097656 C 21.257812 10.914062 22.324219 9.726562 23.390625 8.542969 C 23.882812 7.996094 24.929688 6.832031 24.929688 6.832031 " fill-opacity="1" fill-rule="nonzero"/><path fill="#713e20" d="M 24.929688 6.832031 L 24.726562 6.796875 L 24.929688 6.832031 L 24.722656 6.800781 C 24.722656 6.800781 24.722656 6.800781 24.722656 6.796875 C 24.722656 6.796875 24.726562 6.792969 24.726562 6.792969 C 24.726562 6.777344 24.738281 6.71875 24.753906 6.628906 C 24.808594 6.316406 24.933594 5.589844 25.042969 4.789062 C 25.097656 4.386719 25.148438 3.96875 25.183594 3.574219 C 25.222656 3.175781 25.246094 2.804688 25.246094 2.503906 C 25.246094 2.40625 25.242188 2.3125 25.238281 2.230469 C 25.234375 2.171875 25.226562 2.113281 25.21875 2.066406 C 25.214844 2.027344 25.210938 1.996094 25.203125 1.96875 C 25.195312 1.925781 25.183594 1.894531 25.175781 1.878906 C 25.171875 1.871094 25.167969 1.863281 25.167969 1.863281 L 25.171875 1.859375 L 25.167969 1.863281 L 25.171875 1.859375 L 25.167969 1.863281 L 25.203125 1.832031 L 25.171875 1.871094 C 25.167969 1.867188 25.167969 1.863281 25.167969 1.863281 L 25.203125 1.832031 L 25.171875 1.871094 L 25.179688 1.863281 L 25.171875 1.871094 L 25.179688 1.863281 L 25.171875 1.871094 C 25.167969 1.867188 25.148438 1.859375 25.125 1.855469 C 25.097656 1.851562 25.0625 1.847656 25.019531 1.847656 C 24.960938 1.847656 24.890625 1.851562 24.808594 1.863281 C 24.65625 1.882812 24.472656 1.925781 24.269531 1.976562 C 23.914062 2.074219 23.5 2.210938 23.078125 2.367188 C 22.449219 2.597656 21.804688 2.867188 21.320312 3.078125 C 21.078125 3.183594 20.871094 3.273438 20.730469 3.339844 C 20.660156 3.371094 20.605469 3.394531 20.566406 3.414062 C 20.546875 3.421875 20.53125 3.429688 20.523438 3.433594 C 20.515625 3.4375 20.511719 3.4375 20.511719 3.4375 C 20.507812 3.441406 20.507812 3.441406 20.507812 3.441406 L 20.417969 3.25 L 20.59375 3.367188 C 20.035156 4.183594 19.542969 4.914062 19.050781 5.648438 C 18.554688 6.386719 18.054688 7.125 17.472656 7.957031 C 16.5 9.375 15.265625 11.132812 14.292969 12.550781 C 13.382812 13.878906 12.46875 15.210938 11.554688 16.539062 C 11.289062 16.929688 10.859375 17.554688 10.496094 18.09375 C 10.3125 18.363281 10.144531 18.609375 10.019531 18.792969 C 9.960938 18.886719 9.90625 18.960938 9.871094 19.015625 C 9.851562 19.042969 9.835938 19.066406 9.824219 19.082031 C 9.820312 19.089844 9.816406 19.097656 9.8125 19.101562 C 9.808594 19.105469 9.808594 19.109375 9.804688 19.109375 L 9.632812 18.996094 L 9.839844 19 C 9.839844 19.003906 9.839844 19.007812 9.839844 19.011719 C 9.839844 19.09375 9.859375 19.183594 9.894531 19.28125 C 9.925781 19.367188 9.96875 19.460938 10.023438 19.550781 C 10.121094 19.714844 10.257812 19.882812 10.410156 20.039062 C 10.644531 20.273438 10.921875 20.484375 11.191406 20.632812 C 11.324219 20.707031 11.457031 20.765625 11.578125 20.804688 C 11.695312 20.84375 11.804688 20.863281 11.886719 20.863281 C 11.925781 20.863281 11.957031 20.859375 11.984375 20.855469 C 12.011719 20.847656 12.035156 20.839844 12.050781 20.828125 L 12.132812 20.96875 L 12.039062 20.839844 C 12.039062 20.835938 12.042969 20.832031 12.050781 20.828125 L 12.132812 20.96875 L 12.039062 20.839844 L 12.082031 20.902344 L 12.035156 20.839844 C 12.035156 20.839844 12.035156 20.839844 12.039062 20.839844 L 12.082031 20.902344 L 12.035156 20.839844 C 12.035156 20.839844 12.039062 20.835938 12.042969 20.832031 C 12.050781 20.824219 12.066406 20.8125 12.082031 20.792969 C 12.113281 20.761719 12.152344 20.71875 12.199219 20.667969 C 12.28125 20.578125 12.386719 20.464844 12.492188 20.34375 C 12.65625 20.164062 12.832031 19.964844 12.976562 19.804688 C 13.046875 19.722656 13.113281 19.648438 13.164062 19.589844 C 13.1875 19.5625 13.210938 19.539062 13.226562 19.519531 C 13.246094 19.5 13.257812 19.484375 13.269531 19.472656 C 14.296875 18.332031 15.324219 17.191406 16.351562 16.050781 C 17.578125 14.683594 18.808594 13.320312 20.035156 11.957031 C 21.101562 10.773438 22.167969 9.585938 23.234375 8.402344 C 23.480469 8.128906 23.867188 7.703125 24.191406 7.34375 C 24.351562 7.164062 24.496094 7 24.605469 6.882812 C 24.65625 6.824219 24.699219 6.777344 24.730469 6.742188 C 24.742188 6.726562 24.753906 6.714844 24.761719 6.707031 C 24.765625 6.703125 24.769531 6.699219 24.773438 6.695312 L 24.777344 6.691406 L 24.777344 6.6875 C 24.78125 6.6875 24.78125 6.6875 24.78125 6.683594 L 24.785156 6.683594 L 24.789062 6.679688 L 24.929688 6.832031 L 24.773438 6.691406 L 24.929688 6.832031 L 24.726562 6.796875 L 24.929688 6.832031 L 25.085938 6.972656 L 25.074219 6.984375 L 24.933594 6.835938 L 25.078125 6.980469 C 25.078125 6.980469 25.078125 6.984375 25.074219 6.984375 L 24.933594 6.835938 L 25.078125 6.980469 L 24.941406 6.84375 L 25.082031 6.976562 C 25.082031 6.980469 25.082031 6.980469 25.078125 6.980469 L 24.941406 6.84375 L 25.082031 6.976562 L 24.992188 6.890625 L 25.082031 6.976562 L 24.992188 6.890625 L 25.082031 6.976562 C 25.082031 6.976562 25.082031 6.980469 25.078125 6.984375 C 25.066406 6.996094 25.042969 7.023438 25.003906 7.0625 C 24.753906 7.34375 23.957031 8.226562 23.546875 8.683594 C 22.480469 9.871094 21.414062 11.054688 20.347656 12.238281 C 19.117188 13.601562 17.890625 14.964844 16.660156 16.332031 C 15.632812 17.472656 14.605469 18.613281 13.578125 19.753906 C 13.570312 19.761719 13.5625 19.773438 13.546875 19.789062 C 13.492188 19.851562 13.394531 19.964844 13.273438 20.097656 C 13.09375 20.304688 12.867188 20.558594 12.679688 20.765625 C 12.585938 20.871094 12.5 20.964844 12.433594 21.035156 C 12.398438 21.070312 12.371094 21.097656 12.347656 21.125 C 12.332031 21.136719 12.324219 21.144531 12.3125 21.15625 C 12.304688 21.160156 12.300781 21.167969 12.292969 21.171875 C 12.289062 21.175781 12.285156 21.179688 12.28125 21.179688 C 12.273438 21.183594 12.269531 21.1875 12.261719 21.195312 L 12.261719 21.191406 C 12.203125 21.226562 12.140625 21.25 12.078125 21.265625 C 12.015625 21.277344 11.953125 21.285156 11.886719 21.285156 C 11.761719 21.285156 11.632812 21.261719 11.503906 21.222656 C 11.390625 21.191406 11.273438 21.144531 11.15625 21.089844 C 10.953125 20.992188 10.746094 20.863281 10.550781 20.714844 C 10.402344 20.601562 10.261719 20.480469 10.128906 20.347656 C 9.929688 20.148438 9.757812 19.933594 9.632812 19.710938 C 9.570312 19.597656 9.515625 19.484375 9.480469 19.367188 C 9.445312 19.25 9.421875 19.132812 9.421875 19.011719 C 9.421875 19.003906 9.421875 18.996094 9.421875 18.992188 C 9.425781 18.949219 9.4375 18.914062 9.457031 18.878906 C 9.460938 18.875 9.460938 18.871094 9.464844 18.867188 C 9.480469 18.847656 9.507812 18.800781 9.550781 18.742188 C 9.84375 18.304688 10.757812 16.964844 11.210938 16.300781 C 12.125 14.96875 13.039062 13.640625 13.949219 12.3125 C 14.921875 10.890625 16.15625 9.132812 17.128906 7.71875 L 17.132812 7.714844 C 17.707031 6.886719 18.207031 6.148438 18.703125 5.414062 C 19.199219 4.679688 19.6875 3.945312 20.246094 3.128906 C 20.269531 3.097656 20.296875 3.074219 20.332031 3.058594 C 20.335938 3.058594 21.203125 2.652344 22.21875 2.25 C 22.726562 2.046875 23.269531 1.84375 23.761719 1.6875 C 24.007812 1.613281 24.242188 1.546875 24.453125 1.5 C 24.558594 1.480469 24.660156 1.460938 24.753906 1.449219 C 24.847656 1.433594 24.933594 1.425781 25.019531 1.425781 C 25.09375 1.429688 25.164062 1.433594 25.234375 1.449219 C 25.269531 1.457031 25.300781 1.46875 25.335938 1.484375 C 25.367188 1.496094 25.402344 1.515625 25.433594 1.539062 C 25.464844 1.566406 25.492188 1.597656 25.515625 1.628906 C 25.53125 1.65625 25.546875 1.6875 25.558594 1.714844 C 25.582031 1.765625 25.597656 1.820312 25.613281 1.878906 C 25.632812 1.964844 25.644531 2.058594 25.652344 2.164062 C 25.660156 2.269531 25.664062 2.382812 25.664062 2.503906 C 25.664062 2.695312 25.65625 2.902344 25.640625 3.125 C 25.613281 3.511719 25.570312 3.9375 25.519531 4.359375 C 25.441406 4.996094 25.34375 5.621094 25.269531 6.089844 C 25.230469 6.324219 25.199219 6.519531 25.175781 6.65625 C 25.164062 6.722656 25.152344 6.777344 25.144531 6.816406 C 25.144531 6.832031 25.140625 6.847656 25.140625 6.855469 C 25.136719 6.859375 25.136719 6.863281 25.136719 6.867188 L 25.027344 6.851562 L 25.136719 6.867188 L 25.027344 6.851562 L 25.136719 6.867188 L 24.945312 6.835938 L 25.136719 6.867188 L 24.945312 6.835938 L 25.136719 6.867188 L 25.136719 6.871094 C 25.128906 6.910156 25.113281 6.945312 25.085938 6.972656 L 24.929688 6.832031 " fill-opacity="1" fill-rule="nonzero"/></g><g clip-path="url(#0ef59d7be8)"><path fill="#aeadae" d="M 20.558594 3.417969 C 21.84375 2.824219 24.160156 1.792969 25.179688 1.859375 L 10.660156 20.300781 C 10.140625 19.886719 9.863281 19.335938 9.84375 19.058594 C 10.050781 18.75 11.066406 17.253906 11.554688 16.539062 C 12.484375 15.1875 13.390625 13.871094 14.292969 12.550781 C 14.792969 11.820312 15.363281 11 15.929688 10.183594 C 16.46875 9.414062 17 8.644531 17.472656 7.957031 C 18.144531 6.992188 18.710938 6.152344 19.285156 5.300781 C 19.691406 4.695312 20.101562 4.082031 20.558594 3.417969 " fill-opacity="1" fill-rule="nonzero"/></g></svg>