<svg xmlns="http://www.w3.org/2000/svg" xmlns:xlink="http://www.w3.org/1999/xlink" width="1024" zoomAndPan="magnify" viewBox="0 0 768 767.999994" height="1024" preserveAspectRatio="xMidYMid meet" version="1.0"><defs><clipPath id="ff231d7995"><path d="M 292 521 L 310 521 L 310 537.898438 L 292 537.898438 Z M 292 521 " clip-rule="nonzero"/></clipPath><clipPath id="877cc02b8b"><path d="M 444 230.398438 L 510 230.398438 L 510 290 L 444 290 Z M 444 230.398438 " clip-rule="nonzero"/></clipPath></defs><path fill="#f7831a" d="M 481.113281 291.941406 L 495.515625 289.972656 L 491.5625 261.171875 L 489.589844 246.769531 L 446.390625 252.707031 L 448.371094 267.105469 L 433.972656 269.078125 L 435.953125 283.476562 L 421.554688 285.457031 L 423.523438 299.847656 L 409.136719 301.828125 L 411.105469 316.230469 L 396.707031 318.203125 L 404.613281 375.792969 L 398.6875 332.601562 L 384.289062 334.574219 L 392.191406 392.171875 L 386.269531 348.972656 L 371.871094 350.953125 L 373.839844 365.355469 L 359.441406 367.324219 L 361.421875 381.726562 L 347.023438 383.695312 L 349.003906 398.097656 L 334.601562 400.078125 L 338.554688 428.867188 L 352.957031 426.898438 L 352.332031 422.382812 L 354.925781 441.296875 L 369.328125 439.316406 L 383.726562 437.335938 L 381.746094 422.945312 L 396.144531 420.960938 L 394.175781 406.5625 L 408.566406 404.589844 L 406.59375 390.191406 L 404.652344 376.101562 L 406.59375 390.191406 L 420.992188 388.21875 L 419.011719 373.820312 L 433.410156 371.839844 L 431.429688 357.4375 L 425.746094 315.992188 L 429.460938 343.046875 L 431.429688 357.4375 L 445.832031 355.46875 L 443.859375 341.066406 L 458.25 339.097656 L 456.277344 324.695312 L 470.679688 322.714844 L 468.695312 308.3125 L 483.097656 306.34375 Z M 481.113281 291.941406 " fill-opacity="1" fill-rule="nonzero"/><path fill="#f7831a" d="M 373.277344 468.113281 L 387.675781 466.136719 L 389.65625 480.535156 L 375.253906 482.515625 Z M 373.277344 468.113281 " fill-opacity="1" fill-rule="nonzero"/><path fill="#f7831a" d="M 340.523438 443.265625 L 354.925781 441.289062 L 356.902344 455.6875 L 342.503906 457.667969 Z M 340.523438 443.265625 " fill-opacity="1" fill-rule="nonzero"/><path fill="#f7831a" d="M 307.785156 418.429688 L 322.183594 416.449219 L 324.160156 430.851562 L 309.761719 432.828125 Z M 307.785156 418.429688 " fill-opacity="1" fill-rule="nonzero"/><path fill="#f7831a" d="M 311.730469 447.21875 L 326.128906 445.242188 L 332.058594 488.429688 L 317.660156 490.410156 Z M 311.730469 447.21875 " fill-opacity="1" fill-rule="nonzero"/><path fill="#f7831a" d="M 286.890625 479.972656 L 301.292969 477.992188 L 307.222656 521.183594 L 292.824219 523.160156 Z M 286.890625 479.972656 " fill-opacity="1" fill-rule="nonzero"/><path fill="#f7831a" d="M 275.03125 393.582031 L 289.429688 391.605469 L 291.40625 406.003906 L 277.007812 407.980469 Z M 275.03125 393.582031 " fill-opacity="1" fill-rule="nonzero"/><path fill="#ffc214" d="M 381.742188 422.945312 L 396.144531 420.964844 L 398.121094 435.367188 L 383.722656 437.34375 Z M 381.742188 422.945312 " fill-opacity="1" fill-rule="nonzero"/><path fill="#ffc214" d="M 394.164062 406.574219 L 408.5625 404.59375 L 410.539062 418.996094 L 396.140625 420.972656 Z M 394.164062 406.574219 " fill-opacity="1" fill-rule="nonzero"/><path fill="#ffc214" d="M 406.589844 390.191406 L 420.992188 388.214844 L 422.96875 402.613281 L 408.570312 404.589844 Z M 406.589844 390.191406 " fill-opacity="1" fill-rule="nonzero"/><path fill="#ffc214" d="M 419.011719 373.820312 L 433.410156 371.84375 L 435.386719 386.242188 L 420.988281 388.21875 Z M 419.011719 373.820312 " fill-opacity="1" fill-rule="nonzero"/><path fill="#ffc214" d="M 431.429688 357.449219 L 445.828125 355.472656 L 447.808594 369.871094 L 433.40625 371.847656 Z M 431.429688 357.449219 " fill-opacity="1" fill-rule="nonzero"/><path fill="#ffc214" d="M 443.847656 341.070312 L 458.246094 339.089844 L 460.226562 353.492188 L 445.824219 355.46875 Z M 443.847656 341.070312 " fill-opacity="1" fill-rule="nonzero"/><path fill="#ffc214" d="M 456.277344 324.695312 L 470.675781 322.71875 L 472.65625 337.117188 L 458.253906 339.097656 Z M 456.277344 324.695312 " fill-opacity="1" fill-rule="nonzero"/><path fill="#ffc214" d="M 468.695312 308.324219 L 483.097656 306.347656 L 485.074219 320.746094 L 470.675781 322.726562 Z M 468.695312 308.324219 " fill-opacity="1" fill-rule="nonzero"/><path fill="#ffc214" d="M 481.113281 291.945312 L 495.515625 289.964844 L 497.492188 304.367188 L 483.089844 306.34375 Z M 481.113281 291.945312 " fill-opacity="1" fill-rule="nonzero"/><path fill="#ffc214" d="M 332.621094 385.675781 L 347.019531 383.699219 L 349 398.097656 L 334.597656 400.078125 Z M 332.621094 385.675781 " fill-opacity="1" fill-rule="nonzero"/><path fill="#ffc214" d="M 345.039062 369.304688 L 359.4375 367.328125 L 361.417969 381.730469 L 347.015625 383.707031 Z M 345.039062 369.304688 " fill-opacity="1" fill-rule="nonzero"/><path fill="#ffc214" d="M 357.46875 352.933594 L 371.867188 350.957031 L 373.847656 365.355469 L 359.445312 367.335938 Z M 357.46875 352.933594 " fill-opacity="1" fill-rule="nonzero"/><path fill="#ffc214" d="M 369.886719 336.554688 L 384.285156 334.574219 L 386.265625 348.976562 L 371.863281 350.953125 Z M 369.886719 336.554688 " fill-opacity="1" fill-rule="nonzero"/><path fill="#ffc214" d="M 382.304688 320.183594 L 396.707031 318.203125 L 398.683594 332.605469 L 384.285156 334.582031 Z M 382.304688 320.183594 " fill-opacity="1" fill-rule="nonzero"/><path fill="#ffc214" d="M 394.726562 303.8125 L 409.125 301.835938 L 411.101562 316.234375 L 396.703125 318.210938 Z M 394.726562 303.8125 " fill-opacity="1" fill-rule="nonzero"/><path fill="#ffc214" d="M 404.046875 478.558594 L 418.445312 476.578125 L 422.402344 505.378906 L 408 507.355469 Z M 404.046875 478.558594 " fill-opacity="1" fill-rule="nonzero"/><path fill="#ffc214" d="M 354.925781 441.296875 L 356.910156 455.6875 L 342.507812 457.667969 L 340.539062 443.269531 L 354.925781 441.296875 L 352.957031 426.898438 L 338.554688 428.867188 L 336.585938 414.46875 L 334.601562 400.078125 L 320.203125 402.050781 L 305.804688 404.03125 L 303.832031 389.632812 L 289.433594 391.613281 L 291.414062 406.003906 L 277.011719 407.984375 L 278.984375 422.382812 L 293.382812 420.402344 L 295.367188 434.800781 L 309.765625 432.820312 L 307.785156 418.429688 L 322.183594 416.449219 L 324.15625 430.851562 L 309.765625 432.820312 L 311.738281 447.222656 L 326.136719 445.25 L 328.109375 459.640625 L 330.089844 474.039062 L 332.0625 488.441406 L 346.460938 486.457031 L 344.492188 472.070312 L 358.878906 470.085938 L 360.863281 484.488281 L 375.261719 482.503906 L 373.28125 468.117188 L 387.679688 466.132812 L 385.699219 451.734375 L 383.726562 437.335938 L 369.328125 439.316406 Z M 354.925781 441.296875 " fill-opacity="1" fill-rule="nonzero"/><path fill="#ffc214" d="M 258.65625 381.167969 L 287.453125 377.210938 L 289.433594 391.609375 L 260.632812 395.566406 Z M 258.65625 381.167969 " fill-opacity="1" fill-rule="nonzero"/><g clip-path="url(#ff231d7995)"><path fill="#ffc214" d="M 292.820312 523.160156 L 307.21875 521.183594 L 309.199219 535.582031 L 294.796875 537.5625 Z M 292.820312 523.160156 " fill-opacity="1" fill-rule="nonzero"/></g><path fill="#ffc214" d="M 260.632812 395.5625 L 275.03125 393.585938 L 277.007812 407.984375 L 262.609375 409.960938 Z M 260.632812 395.5625 " fill-opacity="1" fill-rule="nonzero"/><path fill="#ffc214" d="M 375.261719 482.503906 L 377.234375 496.90625 L 391.632812 494.933594 L 393.613281 509.324219 L 408.003906 507.351562 L 406.03125 492.953125 L 404.050781 478.554688 L 402.082031 464.152344 L 387.679688 466.132812 L 389.660156 480.535156 Z M 375.261719 482.503906 " fill-opacity="1" fill-rule="nonzero"/><path fill="#ffc214" d="M 407.152344 287.429688 L 421.554688 285.453125 L 423.53125 299.851562 L 409.132812 301.828125 Z M 407.152344 287.429688 " fill-opacity="1" fill-rule="nonzero"/><path fill="#ffc214" d="M 419.574219 271.058594 L 433.972656 269.082031 L 435.949219 283.480469 L 421.550781 285.460938 Z M 419.574219 271.058594 " fill-opacity="1" fill-rule="nonzero"/><path fill="#ffc214" d="M 431.992188 254.6875 L 446.390625 252.710938 L 448.371094 267.109375 L 433.96875 269.089844 Z M 431.992188 254.6875 " fill-opacity="1" fill-rule="nonzero"/><g clip-path="url(#877cc02b8b)"><path fill="#ffc214" d="M 495.515625 289.972656 L 509.914062 287.988281 L 503.980469 244.800781 L 502.007812 230.398438 L 444.417969 238.304688 L 446.390625 252.707031 L 489.589844 246.769531 Z M 495.515625 289.972656 " fill-opacity="1" fill-rule="nonzero"/></g><path fill="#ffc214" d="M 313.71875 461.621094 L 311.738281 447.222656 L 297.335938 449.203125 L 299.320312 463.59375 L 284.917969 465.574219 L 286.898438 479.972656 L 301.289062 477.992188 L 305.242188 506.792969 L 309.195312 535.582031 L 323.59375 533.613281 L 319.644531 504.8125 L 334.042969 502.839844 L 332.0625 488.441406 L 317.671875 490.410156 Z M 313.71875 461.621094 " fill-opacity="1" fill-rule="nonzero"/><path fill="#ffc214" d="M 288.871094 494.375 L 286.898438 479.972656 L 258.101562 483.925781 L 260.082031 498.328125 L 262.054688 512.714844 L 276.453125 510.746094 L 278.425781 525.144531 L 292.824219 523.164062 L 290.851562 508.765625 Z M 288.871094 494.375 " fill-opacity="1" fill-rule="nonzero"/><path fill="#ffc214" d="M 350.972656 412.496094 L 365.371094 410.515625 L 367.351562 424.917969 L 352.949219 426.894531 Z M 350.972656 412.496094 " fill-opacity="1" fill-rule="nonzero"/><path fill="#ffc214" d="M 363.390625 396.125 L 377.792969 394.148438 L 379.769531 408.546875 L 365.371094 410.523438 Z M 363.390625 396.125 " fill-opacity="1" fill-rule="nonzero"/><path fill="#ffc214" d="M 375.820312 379.753906 L 390.222656 377.773438 L 392.199219 392.175781 L 377.800781 394.152344 Z M 375.820312 379.753906 " fill-opacity="1" fill-rule="nonzero"/><path fill="#ffc214" d="M 388.238281 363.371094 L 402.640625 361.394531 L 404.617188 375.792969 L 390.214844 377.773438 Z M 388.238281 363.371094 " fill-opacity="1" fill-rule="nonzero"/><path fill="#ffc214" d="M 400.65625 347 L 415.058594 345.023438 L 417.035156 359.421875 L 402.636719 361.402344 Z M 400.65625 347 " fill-opacity="1" fill-rule="nonzero"/><path fill="#ffc214" d="M 413.078125 330.632812 L 427.476562 328.652344 L 429.453125 343.054688 L 415.054688 345.03125 Z M 413.078125 330.632812 " fill-opacity="1" fill-rule="nonzero"/><path fill="#ffc214" d="M 425.503906 314.25 L 439.90625 312.269531 L 441.882812 326.671875 L 427.484375 328.648438 Z M 425.503906 314.25 " fill-opacity="1" fill-rule="nonzero"/><path fill="#ffc214" d="M 437.925781 297.878906 L 452.324219 295.898438 L 454.300781 310.300781 L 439.902344 312.277344 Z M 437.925781 297.878906 " fill-opacity="1" fill-rule="nonzero"/><path fill="#ffc214" d="M 450.34375 281.507812 L 464.742188 279.527344 L 466.722656 293.929688 L 452.320312 295.90625 Z M 450.34375 281.507812 " fill-opacity="1" fill-rule="nonzero"/></svg>