<svg xmlns="http://www.w3.org/2000/svg" xmlns:xlink="http://www.w3.org/1999/xlink" width="1024" zoomAndPan="magnify" viewBox="0 0 768 767.999994" height="1024" preserveAspectRatio="xMidYMid meet" version="1.0"><defs><clipPath id="a938223839"><path d="M 304 232 L 537.898438 232 L 537.898438 451 L 304 451 Z M 304 232 " clip-rule="nonzero"/></clipPath><clipPath id="20a5e4f288"><path d="M 318 231.238281 L 537 231.238281 L 537 465 L 318 465 Z M 318 231.238281 " clip-rule="nonzero"/></clipPath><clipPath id="edbc2ffc9d"><path d="M 231 484 L 284 484 L 284 536.488281 L 231 536.488281 Z M 231 484 " clip-rule="nonzero"/></clipPath></defs><path fill="#ffffff" d="M 534.128906 235.148438 L 321.820312 447.054688 L 307.121094 432.382812 L 441.472656 265.265625 L 534.128906 235.148438 " fill-opacity="1" fill-rule="nonzero"/><g clip-path="url(#a938223839)"><path stroke-linecap="round" transform="matrix(0.151248, 0, 0, -0.150964, 62.522095, 704.813193)" fill="none" stroke-linejoin="round" d="M 3118.112249 3111.096366 L 1714.396248 1707.412661 L 1617.209751 1804.600318 L 2505.498984 2911.597742 Z M 3118.112249 3111.096366 " stroke="#25272e" stroke-width="40" stroke-opacity="1" stroke-miterlimit="10"/></g><path fill="#ffffff" d="M 533.582031 234.589844 L 321.261719 446.511719 L 335.960938 461.1875 L 503.410156 327.070312 L 533.582031 234.589844 " fill-opacity="1" fill-rule="nonzero"/><g clip-path="url(#20a5e4f288)"><path stroke-linecap="round" transform="matrix(0.151248, 0, 0, -0.150964, 62.522095, 704.813193)" fill="none" stroke-linejoin="round" d="M 3114.496487 3114.796535 L 1710.703006 1711.009329 L 1807.889504 1613.795797 L 2915.009773 2502.19862 Z M 3114.496487 3114.796535 " stroke="#25272e" stroke-width="40" stroke-opacity="1" stroke-miterlimit="10"/></g><path fill="#ffffff" d="M 331.726562 436.625 L 270.15625 395.503906 C 270.15625 395.503906 248.648438 402.613281 243.113281 422.660156 C 255.089844 423.308594 266.628906 425.816406 277.460938 429.890625 C 283.417969 430.753906 289.394531 434.058594 294.671875 438.042969 C 325.207031 455.585938 347.488281 486.335938 353.160156 522.054688 C 367.605469 514.144531 372.914062 498.066406 372.914062 498.066406 L 331.726562 436.625 " fill-opacity="1" fill-rule="nonzero"/><path stroke-linecap="round" transform="matrix(0.151248, 0, 0, -0.150964, 62.522095, 704.813193)" fill="none" stroke-linejoin="round" d="M 1779.893181 1776.499733 L 1372.810117 2048.8891 C 1372.810117 2048.8891 1230.607392 2001.79604 1194.010723 1869.003959 C 1273.195894 1864.708658 1349.488457 1848.09671 1421.106357 1821.108764 C 1460.492327 1815.390321 1500.007433 1793.499811 1534.899529 1767.106997 C 1736.788141 1650.900989 1884.104586 1447.210564 1921.605195 1210.606749 C 2017.112946 1263.004247 2052.211657 1369.507015 2052.211657 1369.507015 Z M 1779.893181 1776.499733 " stroke="#25272e" stroke-width="40" stroke-opacity="1" stroke-miterlimit="10"/><path fill="#ffffff" d="M 324.347656 466.605469 L 319.992188 448.324219 L 301.691406 443.992188 C 301.691406 443.992188 285.613281 476.707031 256.332031 489.265625 L 267.644531 500.574219 L 278.972656 511.878906 C 291.570312 482.652344 324.347656 466.605469 324.347656 466.605469 " fill-opacity="1" fill-rule="nonzero"/><path stroke-linecap="round" transform="matrix(0.151248, 0, 0, -0.150964, 62.522095, 704.813193)" fill="none" stroke-linejoin="round" d="M 1731.106231 1577.906745 L 1702.309275 1699.003186 L 1581.310407 1727.698903 C 1581.310407 1727.698903 1475.007026 1510.993199 1281.408838 1427.804084 L 1356.203442 1352.895067 L 1431.101354 1278.011926 C 1514.392997 1471.61098 1731.106231 1577.906745 1731.106231 1577.906745 Z M 1731.106231 1577.906745 " stroke="#25272e" stroke-width="40" stroke-opacity="1" stroke-miterlimit="10"/><path fill="#ffffff" d="M 271.804688 533.136719 C 272.089844 532.863281 272.394531 532.625 272.679688 532.335938 C 282.859375 522.191406 282.859375 505.722656 272.679688 495.5625 C 262.5 485.402344 246 485.402344 235.820312 495.5625 C 235.1875 496.195312 234.582031 496.875 234.023438 497.554688 C 249.027344 506.535156 261.972656 518.71875 271.804688 533.136719 " fill-opacity="1" fill-rule="nonzero"/><g clip-path="url(#edbc2ffc9d)"><path stroke-linecap="round" transform="matrix(0.151248, 0, 0, -0.150964, 62.522095, 704.813193)" fill="none" stroke-linejoin="round" d="M 1383.709055 1137.1985 C 1385.594416 1139.009772 1387.608911 1140.588165 1389.494273 1142.502938 C 1456.799086 1209.701113 1456.799086 1318.791411 1389.494273 1386.093087 C 1322.189459 1453.394763 1213.096777 1453.394763 1145.791964 1386.093087 C 1141.608012 1381.901287 1137.604847 1377.398984 1133.911605 1372.89668 C 1233.112598 1313.409347 1318.702833 1232.704262 1383.709055 1137.1985 Z M 1383.709055 1137.1985 " stroke="#25272e" stroke-width="40" stroke-opacity="1" stroke-miterlimit="10"/></g><path stroke-linecap="round" transform="matrix(0.151248, 0, 0, -0.150964, 62.522095, 704.813193)" fill="none" stroke-linejoin="round" d="M 2187.906012 2409.306264 L 2527.710089 2835.498461 " stroke="#25272e" stroke-width="40" stroke-opacity="1" stroke-miterlimit="10"/></svg>