<svg xmlns="http://www.w3.org/2000/svg" xmlns:xlink="http://www.w3.org/1999/xlink" width="40" zoomAndPan="magnify" viewBox="0 0 30 30.000001" height="40" preserveAspectRatio="xMidYMid meet" version="1.0"><defs><clipPath id="b3b679a5e6"><path d="M 8 18 L 24.503906 18 L 24.503906 28.296875 L 8 28.296875 Z M 8 18 " clip-rule="nonzero"/></clipPath><clipPath id="445581b4e2"><path d="M 5.632812 0.71875 L 21 0.71875 L 21 7 L 5.632812 7 Z M 5.632812 0.71875 " clip-rule="nonzero"/></clipPath></defs><path fill="#f7831a" d="M 21.894531 15.5 L 18.445312 15.5 L 18.445312 16.484375 L 21.894531 16.484375 L 21.894531 15.5 " fill-opacity="1" fill-rule="nonzero"/><path fill="#f7831a" d="M 11.054688 15.5 L 11.054688 16.484375 L 14.503906 16.484375 L 14.503906 15.5 L 11.054688 15.5 " fill-opacity="1" fill-rule="nonzero"/><g clip-path="url(#b3b679a5e6)"><path fill="#f7831a" d="M 10.070312 21.410156 C 10.070312 21.140625 10.289062 20.917969 10.5625 20.917969 C 10.832031 20.917969 11.054688 21.140625 11.054688 21.410156 L 11.054688 23.875 C 11.054688 24.144531 10.832031 24.367188 10.5625 24.367188 C 10.289062 24.367188 10.070312 24.144531 10.070312 23.875 Z M 13.023438 21.410156 C 13.023438 21.140625 13.246094 20.917969 13.515625 20.917969 C 13.789062 20.917969 14.011719 21.140625 14.011719 21.410156 L 14.011719 25.84375 C 14.011719 26.117188 13.789062 26.339844 13.515625 26.339844 C 13.246094 26.339844 13.023438 26.117188 13.023438 25.84375 Z M 15.980469 21.410156 C 15.980469 21.140625 16.203125 20.917969 16.472656 20.917969 C 16.746094 20.917969 16.964844 21.140625 16.964844 21.410156 L 16.964844 26.832031 C 16.964844 27.101562 16.746094 27.324219 16.472656 27.324219 C 16.203125 27.324219 15.980469 27.101562 15.980469 26.832031 Z M 18.9375 21.410156 C 18.9375 21.140625 19.160156 20.917969 19.429688 20.917969 C 19.703125 20.917969 19.921875 21.140625 19.921875 21.410156 L 19.921875 25.84375 C 19.921875 26.117188 19.703125 26.339844 19.429688 26.339844 C 19.160156 26.339844 18.9375 26.117188 18.9375 25.84375 Z M 21.894531 21.410156 C 21.894531 21.140625 22.113281 20.917969 22.386719 20.917969 C 22.65625 20.917969 22.878906 21.140625 22.878906 21.410156 L 22.878906 23.875 C 22.878906 24.144531 22.65625 24.367188 22.386719 24.367188 C 22.113281 24.367188 21.894531 24.144531 21.894531 23.875 Z M 9.589844 24.890625 C 10.636719 25.921875 12.644531 27.347656 16.25 28.28125 C 16.394531 28.320312 16.550781 28.320312 16.695312 28.28125 C 20.300781 27.347656 22.308594 25.921875 23.355469 24.890625 C 23.777344 24.476562 24.027344 23.921875 24.070312 23.328125 L 24.355469 19.074219 C 24.359375 19.011719 24.332031 18.980469 24.300781 18.960938 C 24.261719 18.941406 24.222656 18.941406 24.1875 18.964844 C 23.273438 19.550781 21.734375 20.246094 19.59375 20.246094 C 18.542969 20.246094 17.390625 20.070312 16.511719 19.78125 C 16.484375 19.773438 16.464844 19.773438 16.4375 19.78125 C 15.554688 20.070312 14.402344 20.246094 13.355469 20.246094 C 11.214844 20.246094 9.675781 19.550781 8.761719 18.964844 C 8.742188 18.953125 8.722656 18.949219 8.699219 18.949219 C 8.679688 18.949219 8.664062 18.953125 8.644531 18.960938 C 8.617188 18.980469 8.585938 19.011719 8.589844 19.074219 L 8.878906 23.328125 C 8.917969 23.921875 9.171875 24.476562 9.589844 24.890625 " fill-opacity="1" fill-rule="nonzero"/></g><path fill="#f7831a" d="M 18.445312 14.511719 L 21.894531 14.511719 C 22.4375 14.511719 22.878906 14.957031 22.878906 15.5 L 22.878906 16.484375 C 22.878906 17.027344 22.4375 17.46875 21.894531 17.46875 L 18.445312 17.46875 C 17.902344 17.46875 17.460938 17.027344 17.460938 16.484375 L 17.460938 15.5 C 17.460938 14.957031 17.902344 14.511719 18.445312 14.511719 Z M 16.964844 13.527344 C 16.964844 13.800781 16.746094 14.019531 16.472656 14.019531 C 16.203125 14.019531 15.980469 13.800781 15.980469 13.527344 L 15.980469 10.078125 C 15.980469 9.804688 16.203125 9.585938 16.472656 9.585938 C 16.746094 9.585938 16.964844 9.804688 16.964844 10.078125 Z M 15.488281 16.484375 C 15.488281 17.027344 15.046875 17.46875 14.503906 17.46875 L 11.054688 17.46875 C 10.511719 17.46875 10.070312 17.027344 10.070312 16.484375 L 10.070312 15.5 C 10.070312 14.957031 10.511719 14.511719 11.054688 14.511719 L 14.503906 14.511719 C 15.046875 14.511719 15.488281 14.957031 15.488281 15.5 Z M 17.753906 8.371094 L 17.566406 7.613281 L 15.378906 7.613281 L 15.195312 8.371094 C 15.144531 8.5625 14.984375 8.707031 14.789062 8.738281 C 14.121094 8.835938 13.421875 8.984375 12.707031 9.175781 C 10.574219 9.742188 9.082031 11.691406 9.082031 13.914062 L 9.082031 18.039062 C 9.152344 18.066406 9.226562 18.09375 9.289062 18.136719 C 10.09375 18.648438 11.449219 19.257812 13.355469 19.257812 C 14.304688 19.257812 15.34375 19.105469 16.128906 18.84375 C 16.355469 18.773438 16.59375 18.773438 16.816406 18.84375 C 17.605469 19.105469 18.644531 19.257812 19.59375 19.257812 C 21.496094 19.257812 22.855469 18.648438 23.65625 18.136719 C 23.722656 18.09375 23.792969 18.066406 23.863281 18.039062 L 23.863281 13.914062 C 23.863281 11.691406 22.375 9.742188 20.242188 9.175781 C 19.527344 8.984375 18.828125 8.835938 18.160156 8.738281 C 17.964844 8.707031 17.804688 8.5625 17.753906 8.371094 " fill-opacity="1" fill-rule="nonzero"/><g clip-path="url(#445581b4e2)"><path fill="#f7831a" d="M 5.65625 3.757812 C 5.796875 5.132812 6.445312 6.628906 8.597656 6.628906 C 10.367188 6.628906 11.675781 5.855469 12.828125 5.015625 C 13.277344 4.6875 13.851562 4.617188 14.363281 4.828125 C 14.871094 5.035156 15.230469 5.488281 15.320312 6.027344 L 15.417969 6.628906 L 17.867188 6.628906 C 18.21875 6.492188 19.851562 5.75 20.300781 3.753906 C 19.828125 4.027344 19.367188 4.167969 18.9375 4.167969 C 18.667969 4.167969 18.445312 3.945312 18.445312 3.671875 C 18.445312 3.554688 18.371094 0.71875 14.511719 0.71875 C 12.914062 0.71875 12.035156 1.539062 11.105469 2.410156 C 10.179688 3.273438 9.226562 4.167969 7.613281 4.167969 C 6.84375 4.167969 6.1875 4.03125 5.65625 3.757812 " fill-opacity="1" fill-rule="nonzero"/></g></svg>