<svg xmlns="http://www.w3.org/2000/svg" xmlns:xlink="http://www.w3.org/1999/xlink" width="40" zoomAndPan="magnify" viewBox="0 0 30 30.000001" height="40" preserveAspectRatio="xMidYMid meet" version="1.0"><defs><clipPath id="1ab5746caf"><path d="M 2.449219 18.644531 L 10.625 18.644531 L 10.625 23.636719 L 2.449219 23.636719 Z M 2.449219 18.644531 " clip-rule="nonzero"/></clipPath><clipPath id="e5c86f3306"><path d="M 5 18 L 11 18 L 11 27.070312 L 5 27.070312 Z M 5 18 " clip-rule="nonzero"/></clipPath><clipPath id="3a4e65b88d"><path d="M 21.847656 1.953125 L 27.539062 1.953125 L 27.539062 7.65625 L 21.847656 7.65625 Z M 21.847656 1.953125 " clip-rule="nonzero"/></clipPath></defs><g clip-path="url(#1ab5746caf)"><path fill="#ffc214" d="M 6.902344 22.359375 L 2.527344 23.628906 C 2.464844 23.644531 2.421875 23.570312 2.464844 23.527344 L 5.589844 20.402344 C 5.863281 20.128906 6.199219 19.929688 6.574219 19.820312 L 10.609375 18.652344 L 6.902344 22.359375 " fill-opacity="1" fill-rule="nonzero"/></g><g clip-path="url(#e5c86f3306)"><path fill="#ffc214" d="M 7.132812 22.589844 L 5.863281 26.964844 C 5.847656 27.027344 5.921875 27.070312 5.964844 27.027344 L 9.089844 23.90625 C 9.363281 23.628906 9.5625 23.292969 9.671875 22.917969 L 10.839844 18.882812 L 7.132812 22.589844 " fill-opacity="1" fill-rule="nonzero"/></g><path fill="#a6a6a6" d="M 6.53125 22.960938 C 6.382812 22.808594 6.382812 22.5625 6.53125 22.410156 L 24.691406 4.253906 C 24.84375 4.101562 25.089844 4.101562 25.238281 4.253906 C 25.390625 4.402344 25.390625 4.648438 25.238281 4.800781 L 7.082031 22.960938 C 6.929688 23.109375 6.683594 23.109375 6.53125 22.960938 " fill-opacity="1" fill-rule="nonzero"/><g clip-path="url(#3a4e65b88d)"><path fill="#ffc214" d="M 23.933594 5.539062 L 21.871094 4.675781 C 21.839844 4.664062 21.839844 4.621094 21.871094 4.605469 L 27.488281 1.957031 C 27.519531 1.941406 27.550781 1.972656 27.539062 2.003906 L 24.886719 7.621094 C 24.871094 7.652344 24.828125 7.652344 24.816406 7.621094 L 23.953125 5.558594 C 23.949219 5.546875 23.945312 5.542969 23.933594 5.539062 " fill-opacity="1" fill-rule="nonzero"/></g></svg>