<svg xmlns="http://www.w3.org/2000/svg" xmlns:xlink="http://www.w3.org/1999/xlink" width="1024" zoomAndPan="magnify" viewBox="0 0 768 767.999994" height="1024" preserveAspectRatio="xMidYMid meet" version="1.0"><defs><clipPath id="e0d8b2a650"><path d="M 230.398438 230.398438 L 537.898438 230.398438 L 537.898438 537.898438 L 230.398438 537.898438 Z M 230.398438 230.398438 " clip-rule="nonzero"/></clipPath></defs><g clip-path="url(#e0d8b2a650)"><path fill="#fffff6" d="M 532.617188 537.574219 L 235.402344 537.574219 C 232.710938 537.574219 230.53125 535.390625 230.53125 532.699219 L 230.53125 504.9375 C 230.53125 458.742188 268.109375 421.160156 314.304688 421.160156 L 453.714844 421.160156 C 499.910156 421.160156 537.488281 458.742188 537.488281 504.9375 L 537.488281 532.699219 C 537.488281 535.390625 535.308594 537.574219 532.617188 537.574219 Z M 384.011719 408.0625 C 335.027344 408.0625 295.179688 368.214844 295.179688 319.230469 C 295.179688 270.25 335.027344 230.398438 384.011719 230.398438 C 432.992188 230.398438 472.839844 270.25 472.839844 319.230469 C 472.839844 368.214844 432.992188 408.0625 384.011719 408.0625 Z M 384.011719 408.0625 " fill-opacity="1" fill-rule="nonzero"/></g></svg>