<svg xmlns="http://www.w3.org/2000/svg" xmlns:xlink="http://www.w3.org/1999/xlink" width="1024" zoomAndPan="magnify" viewBox="0 0 768 767.999994" height="1024" preserveAspectRatio="xMidYMid meet" version="1.0"><defs><clipPath id="f554ac3951"><path d="M 465 373 L 486.414062 373 L 486.414062 395 L 465 395 Z M 465 373 " clip-rule="nonzero"/></clipPath><clipPath id="f7c19cb069"><path d="M 424 230.398438 L 446 230.398438 L 446 251 L 424 251 Z M 424 230.398438 " clip-rule="nonzero"/></clipPath><clipPath id="ee703184cd"><path d="M 322.597656 517 L 343.0625 517 L 343.0625 537.492188 L 322.597656 537.492188 Z M 322.597656 517 " clip-rule="nonzero"/></clipPath><clipPath id="6af604806b"><path d="M 281.664062 373 L 303 373 L 303 395 L 281.664062 395 Z M 281.664062 373 " clip-rule="nonzero"/></clipPath></defs><g clip-path="url(#f554ac3951)"><path fill="#fe9000" d="M 486.332031 373.757812 L 486.332031 394.230469 L 465.859375 394.230469 L 465.859375 373.757812 L 486.332031 373.757812 " fill-opacity="1" fill-rule="nonzero"/></g><path fill="#fe9000" d="M 465.859375 394.230469 L 465.859375 414.695312 L 445.398438 414.695312 L 445.398438 394.230469 L 465.859375 394.230469 " fill-opacity="1" fill-rule="nonzero"/><path fill="#ffc214" d="M 465.859375 373.757812 L 465.859375 394.230469 L 445.398438 394.230469 L 445.398438 373.757812 L 465.859375 373.757812 " fill-opacity="1" fill-rule="nonzero"/><path fill="#fe9000" d="M 445.398438 414.695312 L 445.398438 435.164062 L 424.929688 435.164062 L 424.929688 414.695312 L 445.398438 414.695312 " fill-opacity="1" fill-rule="nonzero"/><path fill="#ffc214" d="M 445.398438 394.230469 L 445.398438 414.695312 L 424.929688 414.695312 L 424.929688 394.230469 L 445.398438 394.230469 " fill-opacity="1" fill-rule="nonzero"/><path fill="#ffc214" d="M 445.398438 373.757812 L 445.398438 394.230469 L 424.929688 394.230469 L 424.929688 373.757812 L 445.398438 373.757812 " fill-opacity="1" fill-rule="nonzero"/><g clip-path="url(#f7c19cb069)"><path fill="#ffc214" d="M 445.398438 230.496094 L 445.398438 250.957031 L 424.929688 250.957031 L 424.929688 230.496094 L 445.398438 230.496094 " fill-opacity="1" fill-rule="nonzero"/></g><path fill="#fe9000" d="M 424.929688 435.164062 L 424.929688 455.625 L 404.464844 455.625 L 404.464844 435.164062 L 424.929688 435.164062 " fill-opacity="1" fill-rule="nonzero"/><path fill="#ffc214" d="M 424.929688 414.695312 L 424.929688 435.164062 L 404.464844 435.164062 L 404.464844 414.695312 L 424.929688 414.695312 " fill-opacity="1" fill-rule="nonzero"/><path fill="#ffc214" d="M 424.929688 394.230469 L 424.929688 414.695312 L 404.464844 414.695312 L 404.464844 394.230469 L 424.929688 394.230469 " fill-opacity="1" fill-rule="nonzero"/><path fill="#ffc214" d="M 424.929688 373.757812 L 424.929688 394.230469 L 404.464844 394.230469 L 404.464844 373.757812 L 424.929688 373.757812 " fill-opacity="1" fill-rule="nonzero"/><path fill="#fe9000" d="M 424.929688 291.890625 L 424.929688 312.363281 L 404.464844 312.363281 L 404.464844 291.890625 L 424.929688 291.890625 " fill-opacity="1" fill-rule="nonzero"/><path fill="#fe9000" d="M 424.929688 271.429688 L 424.929688 291.890625 L 404.464844 291.890625 L 404.464844 271.429688 L 424.929688 271.429688 " fill-opacity="1" fill-rule="nonzero"/><path fill="#ffc214" d="M 424.929688 250.957031 L 424.929688 271.429688 L 404.464844 271.429688 L 404.464844 250.957031 L 424.929688 250.957031 " fill-opacity="1" fill-rule="nonzero"/><path fill="#fe9000" d="M 404.464844 455.625 L 404.464844 476.097656 L 383.996094 476.097656 L 383.996094 455.625 L 404.464844 455.625 " fill-opacity="1" fill-rule="nonzero"/><path fill="#ffc214" d="M 404.464844 435.164062 L 404.464844 455.625 L 383.996094 455.625 L 383.996094 435.164062 L 404.464844 435.164062 " fill-opacity="1" fill-rule="nonzero"/><path fill="#ffc214" d="M 404.464844 414.695312 L 404.464844 435.164062 L 383.996094 435.164062 L 383.996094 414.695312 L 404.464844 414.695312 " fill-opacity="1" fill-rule="nonzero"/><path fill="#ffc214" d="M 404.464844 394.230469 L 404.464844 414.695312 L 383.996094 414.695312 L 383.996094 394.230469 L 404.464844 394.230469 " fill-opacity="1" fill-rule="nonzero"/><path fill="#ffc214" d="M 404.464844 373.757812 L 404.464844 394.230469 L 383.996094 394.230469 L 383.996094 373.757812 L 404.464844 373.757812 " fill-opacity="1" fill-rule="nonzero"/><path fill="#fe9000" d="M 404.464844 332.824219 L 404.464844 353.296875 L 383.996094 353.296875 L 383.996094 332.824219 L 404.464844 332.824219 " fill-opacity="1" fill-rule="nonzero"/><path fill="#fe9000" d="M 404.464844 312.363281 L 404.464844 332.824219 L 383.996094 332.824219 L 383.996094 312.363281 L 404.464844 312.363281 " fill-opacity="1" fill-rule="nonzero"/><path fill="#ffc214" d="M 404.464844 291.890625 L 404.464844 312.363281 L 383.996094 312.363281 L 383.996094 291.890625 L 404.464844 291.890625 " fill-opacity="1" fill-rule="nonzero"/><path fill="#ffc214" d="M 404.464844 271.429688 L 404.464844 291.890625 L 383.996094 291.890625 L 383.996094 271.429688 L 404.464844 271.429688 " fill-opacity="1" fill-rule="nonzero"/><path fill="#fe9000" d="M 383.996094 476.097656 L 383.996094 496.558594 L 363.53125 496.558594 L 363.53125 476.097656 L 383.996094 476.097656 " fill-opacity="1" fill-rule="nonzero"/><path fill="#ffc214" d="M 383.996094 455.625 L 383.996094 476.097656 L 363.53125 476.097656 L 363.53125 455.625 L 383.996094 455.625 " fill-opacity="1" fill-rule="nonzero"/><path fill="#ffc214" d="M 383.996094 435.164062 L 383.996094 455.625 L 363.53125 455.625 L 363.53125 435.164062 L 383.996094 435.164062 " fill-opacity="1" fill-rule="nonzero"/><path fill="#ffc214" d="M 383.996094 373.757812 L 383.996094 394.230469 L 363.53125 394.230469 L 363.53125 373.757812 L 383.996094 373.757812 " fill-opacity="1" fill-rule="nonzero"/><path fill="#fe9000" d="M 383.996094 353.296875 L 383.996094 373.757812 L 363.53125 373.757812 L 363.53125 353.296875 L 383.996094 353.296875 " fill-opacity="1" fill-rule="nonzero"/><path fill="#ffc214" d="M 383.996094 332.824219 L 383.996094 353.296875 L 363.53125 353.296875 L 363.53125 332.824219 L 383.996094 332.824219 " fill-opacity="1" fill-rule="nonzero"/><path fill="#ffc214" d="M 383.996094 312.363281 L 383.996094 332.824219 L 363.53125 332.824219 L 363.53125 312.363281 L 383.996094 312.363281 " fill-opacity="1" fill-rule="nonzero"/><path fill="#ffc214" d="M 383.996094 291.890625 L 383.996094 312.363281 L 363.53125 312.363281 L 363.53125 291.890625 L 383.996094 291.890625 " fill-opacity="1" fill-rule="nonzero"/><path fill="#fe9000" d="M 363.53125 496.558594 L 363.53125 517.03125 L 343.0625 517.03125 L 343.0625 496.558594 L 363.53125 496.558594 " fill-opacity="1" fill-rule="nonzero"/><path fill="#ffc214" d="M 363.53125 476.097656 L 363.53125 496.558594 L 343.0625 496.558594 L 343.0625 476.097656 L 363.53125 476.097656 " fill-opacity="1" fill-rule="nonzero"/><path fill="#ffc214" d="M 363.53125 373.757812 L 363.53125 394.230469 L 343.0625 394.230469 L 343.0625 373.757812 L 363.53125 373.757812 " fill-opacity="1" fill-rule="nonzero"/><path fill="#ffc214" d="M 363.53125 353.296875 L 363.53125 373.757812 L 343.0625 373.757812 L 343.0625 353.296875 L 363.53125 353.296875 " fill-opacity="1" fill-rule="nonzero"/><path fill="#ffc214" d="M 363.53125 332.824219 L 363.53125 353.296875 L 343.0625 353.296875 L 343.0625 332.824219 L 363.53125 332.824219 " fill-opacity="1" fill-rule="nonzero"/><path fill="#ffc214" d="M 363.53125 312.363281 L 363.53125 332.824219 L 343.0625 332.824219 L 343.0625 312.363281 L 363.53125 312.363281 " fill-opacity="1" fill-rule="nonzero"/><g clip-path="url(#ee703184cd)"><path fill="#fe9000" d="M 343.0625 517.03125 L 343.0625 537.492188 L 322.597656 537.492188 L 322.597656 517.03125 L 343.0625 517.03125 " fill-opacity="1" fill-rule="nonzero"/></g><path fill="#ffc214" d="M 343.0625 373.757812 L 343.0625 394.230469 L 322.597656 394.230469 L 322.597656 373.757812 L 343.0625 373.757812 " fill-opacity="1" fill-rule="nonzero"/><path fill="#ffc214" d="M 343.0625 353.296875 L 343.0625 373.757812 L 322.597656 373.757812 L 322.597656 353.296875 L 343.0625 353.296875 " fill-opacity="1" fill-rule="nonzero"/><path fill="#ffc214" d="M 343.0625 332.824219 L 343.0625 353.296875 L 322.597656 353.296875 L 322.597656 332.824219 L 343.0625 332.824219 " fill-opacity="1" fill-rule="nonzero"/><path fill="#ffc214" d="M 322.597656 373.757812 L 322.597656 394.230469 L 302.128906 394.230469 L 302.128906 373.757812 L 322.597656 373.757812 " fill-opacity="1" fill-rule="nonzero"/><path fill="#ffc214" d="M 322.597656 353.296875 L 322.597656 373.757812 L 302.128906 373.757812 L 302.128906 353.296875 L 322.597656 353.296875 " fill-opacity="1" fill-rule="nonzero"/><g clip-path="url(#6af604806b)"><path fill="#ffc214" d="M 302.128906 373.757812 L 302.128906 394.230469 L 281.664062 394.230469 L 281.664062 373.757812 L 302.128906 373.757812 " fill-opacity="1" fill-rule="nonzero"/></g></svg>